/* XPM */
static char *_35472999a9f4c24d0a8a4beb8d01247nVHcH9zSpmSAVfI1[] = {
/* columns rows colors chars-per-pixel */
"64 64 37 1 ",
"  c #0A0955",
". c #0B0A56",
"X c #0F0E69",
"o c #100E6A",
"O c #14127A",
"+ c #171588",
"@ c #171688",
"# c #1A1894",
"$ c #1A1995",
"% c #1D1BA0",
"& c #1F1EAA",
"* c #2220B3",
"= c #2220B4",
"- c #2422BC",
"; c #2422BD",
": c #2624C5",
"> c #2E24C5",
", c #3124C5",
"< c #3D23C6",
"1 c #3F23C6",
"2 c #4823C7",
"3 c #4A23C7",
"4 c #5023C7",
"5 c #5223C7",
"6 c #5922C8",
"7 c #5B22C8",
"8 c #6122C8",
"9 c #6222C9",
"0 c #6821C9",
"q c #6921C9",
"w c #6F21CA",
"e c #7021CA",
"r c #7520CA",
"t c #7A20CB",
"y c #0073D4",
"u c #00E2FF",
"i c white",
/* pixels */
"....................................  . .....................   ",
"XXXXXXXXXXXXXXXXXXXXXXXXXXXXooXXXXXXXXXXXXXXXXXXXXXXXXXXXXXXXXXX",
"OOOOOOOOOOOOOOOOOOOOOOOOOOOOOOOOOOOOOOOOOOOOOOOOOOOOOOOOOOOOOOOO",
"+++++++@++++@@@@+++@+++++++++++@+++@@@+++++++++++++++++@++++@@@@",
"######$$$$#########$#######$$$$$$$$$#$$$#############$$$#####$$$",
"%#%%%$%%%%%%#%%%%%%%%%%%%#%%%%%%%%$%#%%%%%%%%%%%%#%%%$%%%%#%$%%$",
"=&&&=&&&&&&&&&&&&&&&&&&&&&&&&&&&=&&&&&=&&&&&&&&&=&&&=&&&=&&&&&-&",
"==========================================*===*===========*==*==",
"--------:-------------------------------------------------------",
"::::::::::::::::::::::::::::::::::::::::::::::::::::::::::::::::",
"::::::::::::::::::::::::::::::::::::::::::::::::::::::::::::::::",
"::::::::::::::::::::::::::::::::::::::::::::::::::::::::::::::::",
"::::::::::::::::::::::::::::::::::::::::::::::::::::::::::::::::",
"yyyyyyyyyyyyyyyyyyyyyyyyyyyyyyyyyyyyyyyyyyyyyyyyyyyyyyyyyyyyyyyy",
"uuuuuuuuuuuuuuuuuuuuuuuuuuuuuuuuuuuuuuuuuuuuuuuuuuuuuuuuuuuuuuuu",
"iiiiiiiiiiiiiiiiiiiiiiiiiiiiiiiiiiiiiiiiiiiiiiiiiiiiiiiiiiiiiiii",
"uuuuuuuuuuuuuuuuuuuuuuuuuuuuuuuuuuuuuuuuuuuuuuuuuuuuuuuuuuuuuuuu",
"yyyyyyyyyyyyyyyyyyyyyyyyyyyyyyyyyyyyyyyyyyyyyyyyyyyyyyyyyyyyyyyy",
"::::::::::::::::::::::::::::::::::::::::::::::::::::::::::::::::",
"::::::::::::::::::::::::::::::::::::::::::::::::::::::::::::::::",
"::::::::::::::::::::::::::::::::::::::::::::::::::::::::::::::::",
"::::::::::::::::::::::::::::::::::::::::::::::::::::::::::::::::",
"::::::::::::::::::::::::::::::::::::::::::::::::::::::::::::::::",
"::::::::::::::::::::::::::::::::::::::::::::::::::::::::::::::::",
"::::::::::::::::::::::::::::::::::::::::::::::::::::::::::::::::",
"::::::::::::::::::::::::::::::::::::::::::::::::::::::::::::::::",
"::::::::::::::::::::::::::::::::::::::::::::::::::::::::::::::::",
"::::::::::::::::::::::::::::::::::::::::::::::::::::::::::::::::",
"::::::::::::::::::::::::::::::::::::::::::::::::::::::::::::::::",
"::::::::::::::::::::::::::::::::::::::::::::::::::::::::::::::::",
"::::::::::::::::::::::::::::::::::::::::::::::::::::::::::::::::",
"::::::::::::::::::::::::::::::::::::::::::::::::::::::::::::::::",
"::::::::::::::::::::::::::::::::::::::::::::::::::::::::::::::::",
"::::::::::::::::::::::::::::::::::::::::::::::::::::::::::::::::",
"::::::::::::::::::::::::::::::::::::::::::::::::::::::::::::::::",
"yyyyyyyyyyyyyyyyyyyyyyyyyyyyyyyyyyyyyyyyyyyyyyyyyyyyyyyyyyyyyyyy",
"uuuuuuuuuuuuuuuuuuuuuuuuuuuuuuuuuuuuuuuuuuuuuuuuuuuuuuuuuuuuuuuu",
"iiiiiiiiiiiiiiiiiiiiiiiiiiiiiiiiiiiiiiiiiiiiiiiiiiiiiiiiiiiiiiii",
"uuuuuuuuuuuuuuuuuuuuuuuuuuuuuuuuuuuuuuuuuuuuuuuuuuuuuuuuuuuuuuuu",
"yyyyyyyyyyyyyyyyyyyyyyyyyyyyyyyyyyyyyyyyyyyyyyyyyyyyyyyyyyyyyyyy",
"::::::::::::::::::::::::::::::::::::::::::::::::::::::::::::::::",
"::::::::::::::::::::::::::::::::::::::::::::::::::::::::::::::::",
"::::::::::::::::::::::::::::::::::::::::::::::::::::::::::::::::",
"::::::::::::::::::::::::::::::::::::::::::::::::::::::::::::::::",
"::::::::::::::::::::::::::::::::::::::::::::::::::::::::::::::::",
"::::::::::::::::::::::::::::::::::::::::::::::::::::::::::::::::",
"::::::::::::::::::::::::::::::::::::::::::::::::::::::::::::::::",
"::::::::::::::::::::::::::::::::::::::::::::::::::::::::::::::::",
"::::::::::::::::::::::::::::::::::::::::::::::::::::::::::::::::",
"::::::::::::::::::::::::::::::::::::::::::::::::::::::::::::::::",
"::::::::::::::::::::::::::::::::::::::::::::::::::::::::::::::::",
"::::::::::::::::::::::::::::::::::::::::::::::::::::::::::::::::",
"::::::::::::::::::::::::::::::::::::::::::::::::::::::::::::::::",
"::::::::::::::::::::::::::::::::::::::::::::::::::::::::::::::::",
",>>>,>>>>>>>>>>>:>>->>>,>>>>>>>>>>>>>>>>,>>>>>>>,,>>>>>>>,>>>>>>",
"1111111111<11111121211<111111111<2<1<<121<<<<2111111111111111111",
"2233332232332333333222322233222322322222333332223323332222333333",
"5555353553553535555555555555555555555555355553553535553533555355",
"6777776767777777777666666677666666676677777777777777777777777777",
"9999999999999999988988889989899999799999999999999999999999999999",
"qqqqqqqqqqqqqqq9qqq9w9qqqqqqqqqqqqqqqqqq9qq99q9qqqq9qqqqqq9qqqqq",
"ewwwwwwwwweeeeeewwwwwwweeweweewwwwwweewewwrwrwreeeereeeweeeeewew",
"rrrrrrrrrrrrrrrtrrrrrrrrrrrrwrrrrrrrrrrrrrrrrrrrrrrrrrrrrrrrrrrr",
"tttttttttttttttttttttttttttttttttttttttttttttttttttttttttttttttt"
};
