/* XPM */
static char * img_Empty2_xpm[] = {
"32 32 133 2",
"  	c #969696",
". 	c #888888",
"+ 	c #777777",
"@ 	c #595959",
"# 	c #535353",
"$ 	c #4E4E4E",
"% 	c #3A3A3A",
"& 	c #464646",
"* 	c #313131",
"= 	c #3F3F3F",
"- 	c #656565",
"; 	c #616161",
"> 	c #757575",
", 	c #636363",
"' 	c #676767",
") 	c #686868",
"! 	c #646464",
"~ 	c #5C5C5C",
"{ 	c #575757",
"] 	c #6C6C6C",
"^ 	c #5D5D5D",
"/ 	c #606060",
"( 	c #6F6F6F",
"_ 	c #7E7E7E",
": 	c #797979",
"< 	c #565656",
"[ 	c #909090",
"} 	c #737373",
"| 	c #444444",
"1 	c #4B4B4B",
"2 	c #3C3C3C",
"3 	c #434343",
"4 	c #3D3D3D",
"5 	c #525252",
"6 	c #7A7A7A",
"7 	c #717171",
"8 	c #868686",
"9 	c #5B5B5B",
"0 	c #5A5A5A",
"a 	c #6B6B6B",
"b 	c #808080",
"c 	c #4F4F4F",
"d 	c #424242",
"e 	c #5E5E5E",
"f 	c #5F5F5F",
"g 	c #818181",
"h 	c #363636",
"i 	c #4C4C4C",
"j 	c #404040",
"k 	c #414141",
"l 	c #515151",
"m 	c #6D6D6D",
"n 	c #696969",
"o 	c #8A8A8A",
"p 	c #6E6E6E",
"q 	c #747474",
"r 	c #7F7F7F",
"s 	c #828282",
"t 	c #767676",
"u 	c #4A4A4A",
"v 	c #484848",
"w 	c #353535",
"x 	c #373737",
"y 	c #666666",
"z 	c #848484",
"A 	c #7B7B7B",
"B 	c #6A6A6A",
"C 	c #989898",
"D 	c #858585",
"E 	c #838383",
"F 	c #959595",
"G 	c #A0A0A0",
"H 	c #8D8D8D",
"I 	c #8E8E8E",
"J 	c #383838",
"K 	c #3E3E3E",
"L 	c #707070",
"M 	c #898989",
"N 	c #4D4D4D",
"O 	c #999999",
"P 	c #AAAAAA",
"Q 	c #8C8C8C",
"R 	c #7C7C7C",
"S 	c #2B2B2B",
"T 	c #939393",
"U 	c #949494",
"V 	c #545454",
"W 	c #2D2D2D",
"X 	c #494949",
"Y 	c #8F8F8F",
"Z 	c #555555",
"` 	c #2F2F2F",
" .	c #9F9F9F",
"..	c #393939",
"+.	c #9A9A9A",
"@.	c #585858",
"#.	c #727272",
"$.	c #9C9C9C",
"%.	c #626262",
"&.	c #787878",
"*.	c #9D9D9D",
"=.	c #A4A4A4",
"-.	c #878787",
";.	c #929292",
">.	c #454545",
",.	c #7D7D7D",
"'.	c #505050",
").	c #333333",
"!.	c #323232",
"~.	c #262626",
"{.	c #303030",
"].	c #474747",
"^.	c #282828",
"/.	c #242424",
"(.	c #ACACAC",
"_.	c #AEAEAE",
":.	c #9E9E9E",
"<.	c #A7A7A7",
"[.	c #8B8B8B",
"}.	c #979797",
"|.	c #A3A3A3",
"1.	c #A5A5A5",
"2.	c #A1A1A1",
"3.	c #ABABAB",
"4.	c #A2A2A2",
"5.	c #3B3B3B",
"6.	c #919191",
"7.	c #A6A6A6",
"8.	c #292929",
"9.	c #2A2A2A",
"0.	c #A8A8A8",
"a.	c #212121",
"b.	c #1D1D1D",
"  . + @ # $ % & * = - ; > , , ' ) ! ~ { ] ^ / ( _ + : < & / ; ; ",
"[ } ; | = 1 2 3 4 5 6 7 8 ' 9 , / 0 a ) a , ) + b : ( c d e f ~ ",
"g / # h * i j k l ! 8 6 . m ^ n ' ] o g } p q r s g } e < t + } ",
"9 u v w x f @ # y p z A _ ( e a B b C D ' - 7 E F G H g + I [ . ",
"J K v k 1 E + ! t : E s q L 9 / ' M g a 1 N y D O P Q b > _ b R ",
"S K v k N t 6 a s T U O > > < { e > V 2 W 2 ) [ [ C ' 0 1 # - B ",
"d # X j # } } ] r Y Q I ; ) { Z # ^ % ` 4 < M  .> > | ..j c a t ",
"q t / c y p - ! p 6 m ( < B ] ; 0 ; c $ ) 6 +.  f , 2 = @.#.Y E ",
"$.  _ y R L - n ] t %./ @.m &.! / ' m n s z C Y ; p 9 ) M *.=.p ",
"*.O D } . q a s : r / @ e a t 0 ~ n -.: o o T . ) z &.M  .*.F l ",
" .;.: B a < # _ + g ) , m ] t 0 e m I + R 7 ( f i p e , y %., J ",
"*.-.; Z >.4 v E ,.b m e ; < , u # ) ,./ ~ Z v u | ; l X '.$ '.4 ",
"T &.i u ).h '.s } ' @ >.N X @.c ; q b %.e ~ # ' , 6 ' # 9 ^ ^ # ",
"A 9 h !.~.{.c L - { @.].@.0 ) a ,.s R , @.@ @.,.,.F _ - n a > p ",
"; = ^./.~.K B . . _ b , 7 %.! - ] - @ c = X Z ,.g E t 0 B 7 z g ",
"n | J 2 1 : $.(._.;.D / ] 0 Z ) ) 9 5 { v e 7 Y D #.] $ { @.f @.",
"m 1 >.c ! T :. . .b #.; ( e @.+ p ' - _ p z C <.U a ' 3 = K ].| ",
"@ j ..i @.A g E I A #.7 m @.i n / ! &.+.[.}.|.1.[ ; - ].& l ! p ",
"@ & % # @.7 E 8 Y r ' %.l 3 d ~ 9 ' D :.H g r } , >.V X V a . C ",
"%.c 3 %.) z }.T [ _ ^ f V u V f ' ,.Y I : @.{ 5 X = 9 $ 0 7 : Q ",
"V ~ , z H 2.3.$.. ,.e e ~ 1 l N B r D #.p u l @.9 { m { { / 9 R ",
"~ 7 _     4.$.-.> #.l 3 ].w K | p r R , m '.@ - B 9 @ | k i { E ",
"B _ o +.M Q R p , ' & ).# 5.].; z M R ^ B $ 1 V V k X 3 1 B : 6.",
"_ F ;.+.: > B y n 7 0 1 E f a L z D ! 1 @.>.= 1 @ i f ' > M 8 I ",
"F 7.g D @ ~ y B _ r ] 9 6.%.e - %.' i d @ '.$ ! R ' : s s I -.. ",
"- y j ].j Z + 7 E > - V r Z '.~ Z ) 0 9 &.( ] #.g ) &.H -.U M . ",
"` h 8.J 0 ' g ) ( y e @.> < < - / _ &.b M : t y p e ] _ B R ] L ",
").K 4 '.R , n '.V < Z 1 5 4 K 3 ..5 '.! a ; L 5 # # @.m , p n ) ",
"/ ~ { @ : $ '.].X $ V 2 % !.9.S /.% u y _ y R Z 0 #.L M E g #.] ",
"t ! / 9 ,.l { @ < < ) 1 = 3 J J 5.f ,.U 2.t E ; #.$.O 3.:.D ' 0 ",
"%.V @.e 6 @ ; #.+ &.[ ) V ; f ! L U 0.I E $ ].2 $ > a > t y 0 9 ",
"c i Z e , { ' I I g H ; i ) L 7 g [.b c 3 a.b.9.5.9 ~ ^ #.a ' ] "};
