/* XPM */
static char * img_Exits_xpm[] = {
"32 32 274 2",
"  	c None",
". 	c #E8CC28",
"+ 	c #E1C527",
"@ 	c #DAC025",
"# 	c #D6BB24",
"$ 	c #D9BE25",
"% 	c #DEC426",
"& 	c #E7CB28",
"* 	c #EED129",
"= 	c #F2D429",
"- 	c #DEC326",
"; 	c #CDB422",
"> 	c #BEA722",
", 	c #B6A024",
"' 	c #B6A02B",
") 	c #B59F2B",
"! 	c #A79327",
"~ 	c #A69227",
"{ 	c #AE9929",
"] 	c #AB9628",
"^ 	c #B19B2A",
"/ 	c #BCA526",
"( 	c #C9B124",
"_ 	c #E9CC28",
": 	c #F0D329",
"< 	c #D2B923",
"[ 	c #B29C1F",
"} 	c #65591E",
"| 	c #5C5332",
"1 	c #655E42",
"2 	c #988D65",
"3 	c #5E573D",
"4 	c #49432E",
"5 	c #9F946A",
"6 	c #7A7150",
"7 	c #6E6648",
"8 	c #A79B6F",
"9 	c #746B4C",
"0 	c #4C4630",
"a 	c #524C35",
"b 	c #8C825C",
"c 	c #585138",
"d 	c #60583E",
"e 	c #7F7343",
"f 	c #857629",
"g 	c #CDB426",
"h 	c #E4C927",
"i 	c #EFD229",
"j 	c #C9B121",
"k 	c #A18D21",
"l 	c #50482E",
"m 	c #151511",
"n 	c #5A594F",
"o 	c #BAB2A9",
"p 	c #6D6C66",
"q 	c #272725",
"r 	c #C4C3B9",
"s 	c #96958E",
"t 	c #454541",
"u 	c #7F7E70",
"v 	c #CCC3B9",
"w 	c #8F8E87",
"x 	c #333330",
"y 	c #4D4D49",
"z 	c #ACABA3",
"A 	c #000000",
"B 	c #62625D",
"C 	c #767670",
"D 	c #CDCCC2",
"E 	c #807442",
"F 	c #C5AE2B",
"G 	c #E2C527",
"H 	c #C6AE20",
"I 	c #9B8829",
"J 	c #58523F",
"K 	c #63635E",
"L 	c #7D7D7D",
"M 	c #E2E2E2",
"N 	c #ACACAC",
"O 	c #A1A1A1",
"P 	c #ABABAB",
"Q 	c #F5F5F5",
"R 	c #CBCBCB",
"S 	c #F6F6F6",
"T 	c #C3C3C3",
"U 	c #DEDEDE",
"V 	c #BCBCBC",
"W 	c #9E9E9E",
"X 	c #EBEBEB",
"Y 	c #898989",
"Z 	c #959595",
"` 	c #FFFFFF",
" .	c #9D958E",
"..	c #837953",
"+.	c #C4AC30",
"@.	c #E0C427",
"#.	c #9C8B2B",
"$.	c #8F896E",
"%.	c #C3C3C2",
"&.	c #D7D7D7",
"*.	c #B4A673",
"=.	c #C2AB30",
"-.	c #9D8C2B",
";.	c #6D6853",
">.	c #B5B5B5",
",.	c #958F87",
"'.	c #969073",
").	c #CCCCCB",
"!.	c #B4B4B4",
"~.	c #525252",
"{.	c #4B4B4B",
"].	c #C2C2C2",
"^.	c #F4F4F4",
"/.	c #FEFEFE",
"(.	c #76715A",
"_.	c #A2A2A1",
":.	c #919191",
"<.	c #4C4C4C",
"[.	c #303030",
"}.	c #151515",
"|.	c #636363",
"1.	c #B1B1B1",
"2.	c #454544",
"3.	c #4D4D4D",
"4.	c #404040",
"5.	c #131313",
"6.	c #171717",
"7.	c #060606",
"8.	c #1E1E1E",
"9.	c #5E5E5E",
"0.	c #878786",
"a.	c #6E6E6E",
"b.	c #434343",
"c.	c #2E2E2E",
"d.	c #3A3A3A",
"e.	c #323232",
"f.	c #161616",
"g.	c #767676",
"h.	c #787878",
"i.	c #3F3F3F",
"j.	c #3D3D3D",
"k.	c #5F5F5F",
"l.	c #6B6B6B",
"m.	c #AEAD9A",
"n.	c #B1A36D",
"o.	c #978629",
"p.	c #5D5846",
"q.	c #767675",
"r.	c #ADADAD",
"s.	c #4A4A4A",
"t.	c #595959",
"u.	c #1A1A1A",
"v.	c #252525",
"w.	c #666666",
"x.	c #81774E",
"y.	c #B9A32D",
"z.	c #968629",
"A.	c #4E4A3A",
"B.	c #1B1B1B",
"C.	c #868686",
"D.	c #B3B3B3",
"E.	c #272727",
"F.	c #616161",
"G.	c #BABABA",
"H.	c #656565",
"I.	c #202020",
"J.	c #414141",
"K.	c #A5A5A5",
"L.	c #776D4A",
"M.	c #54503F",
"N.	c #636362",
"O.	c #757575",
"P.	c #727272",
"Q.	c #B9B9B9",
"R.	c #AEAEAE",
"S.	c #8F8F8F",
"T.	c #828282",
"U.	c #898369",
"V.	c #BABAB9",
"W.	c #EAEAEA",
"X.	c #F3F3F3",
"Y.	c #E9E9E9",
"Z.	c #67634E",
"`.	c #787877",
" +	c #A3A3A3",
".+	c #1D1D1D",
"++	c #555140",
"@+	c #232323",
"#+	c #797979",
"$+	c #5B5745",
"%+	c #434342",
"&+	c #0E0E0E",
"*+	c #837E64",
"=+	c #B3B3B2",
"-+	c #E1E1E1",
";+	c #6E6953",
">+	c #8E8E8D",
",+	c #474747",
"'+	c #7E7E7E",
")+	c #4F4F4F",
"!+	c #464646",
"~+	c #888888",
"{+	c #3C3C3C",
"]+	c #262626",
"^+	c #7E7960",
"/+	c #ABABAA",
"(+	c #878787",
"_+	c #9B9B9B",
":+	c #040404",
"<+	c #6D6C67",
"[+	c #685F40",
"}+	c #C8B021",
"|+	c #A69226",
"1+	c #70674A",
"2+	c #CCCCC2",
"3+	c #6C6C67",
"4+	c #4D4D47",
"5+	c #0F0F0D",
"6+	c #4A4536",
"7+	c #141001",
"8+	c #BABAB1",
"9+	c #4B4642",
"0+	c #191917",
"a+	c #80807A",
"b+	c #C3C3B9",
"c+	c #878780",
"d+	c #A2A29A",
"e+	c #62625C",
"f+	c #675E3A",
"g+	c #D1B723",
"h+	c #B39E22",
"i+	c #736529",
"j+	c #746A49",
"k+	c #7D7459",
"l+	c #AB9F7B",
"m+	c #5A533F",
"n+	c #534C32",
"o+	c #474130",
"p+	c #6C6028",
"q+	c #675A13",
"r+	c #9C9170",
"s+	c #524B32",
"t+	c #504A37",
"u+	c #6A634C",
"v+	c #A39875",
"w+	c #877E61",
"x+	c #5A5335",
"y+	c #685B24",
"z+	c #CBB326",
"A+	c #E4C827",
"B+	c #DCC226",
"C+	c #CBB221",
"D+	c #BAA423",
"E+	c #B29E2B",
"F+	c #B39E33",
"G+	c #A3902D",
"H+	c #B29D28",
"I+	c #B29D33",
"J+	c #AB9730",
"K+	c #AC9831",
"L+	c #B9A330",
"M+	c #C6AE26",
"N+	c #D9C025",
"O+	c #E8CB28",
"P+	c #E0C426",
"Q+	c #D9BF25",
"R+	c #D8BE24",
"S+	c #E6CA28",
"T+	c #EDD029",
"U+	c #EACF29",
"V+	c #EACE29",
"W+	c #ECD029",
"X+	c #F1D429",
"Y+	c #F2D42A",
". + @ # # # # # # # # # # # # # # # # # # # # # # # # $ % & * = ",
"- ; > , ' ) ! ~ ! ) { { { ' ] ~ ~ ^ ' ' ' ' ' ' ' ' ' / ( @ _ : ",
"< [ } | 1 2 3 4 3 5 6 7 6 8 9 0 a b 6 6 6 5 c c d 8 6 e f g h i ",
"j k l m n o p q p r s t u v w x y z s A s r B A C D s A E F G * ",
"H I J K L M N O P Q R R P S T O O U V V W X Y Y Z ` V  ...+.@.* ",
"H #.$.%.Q ` ` ` ` ` ` ` ` ` ` ` ` ` ` ` &.S ` ` ` ` ` D *.=.@.* ",
"H -.;.Z V ` ` ` ` ` ` ` ` ` ` ` ` ` ` ` ` ` ` ` ` ` V s ..=.@.* ",
"H -.;.A V ` ` ` ` ` ` ` ` ` V W >.` ` ` ` ` ` ` ` ` V A ..=.@.* ",
"H -.;.Z V ` ` ` ` ` ` ` ` ` V A >.` ` ` ` &.S ` ` ` W ,...=.@.* ",
"H -.'.).` ` &.S ` ` ` Q &.!.~.{.~.].^./.` &.S ` ` ` &.v *.=.@.* ",
"H -.(._.R ` &.S ` ` ` R :.<.[.A }.|.1.^.` ` ` ` ` ` V s ..=.@.* ",
"H -.;.2.V ` ` ` ` ` ` T 3.4.5.6.7.8.9.].` ` ` ` ` ` V A ..=.@.* ",
"H -.;.0.V ` ` ` ` ` V a.b.c.d.A e.A f.|.T Q ` ` ` ` V s ..=.@.* ",
"H -.$.%.^.` ` ` ` R g.A A h.i.A j.k.A 8.l.].Q ` ` ` ` m.n.=.@.* ",
"H o.p.q.W ^.` ` T g.6.6.W r.s.A 3.N t.u.v.w.].Q ` ` R u x.y.@.* ",
"H z.A.B.C.^.` ` D.E.v.F.&.S 3.}.3.Q G.H.I.J.K.^.` ` R t L.y.@.* ",
"H z.M.N.Z ^.` ` D.O.P.Q.^.` {.B.{.` &.R.S.T.Q.^.` ` R s ..y.@.* ",
"H #.U.V.W./.` ` X.Y.Y.Q ` ` ~.A ~.` &.S Q ^.^./.` ` ` D *.=.@.* ",
"H -.Z.`. +^.` ` ` &.S ` ` ` 4..+4.` ` ` ` ` ` ` ` &.>.s ..=.@.* ",
"H -.++@+#+^.` ` ` &.S ` ` ` {.A {.` ` ` ` ` ` ` ` &.>.A ..=.@.* ",
"H -.$+%+S.Q ` ` ` ` ` ` ` ` j.&+j.` ` ` ` ` ` ` ` ` V s ..=.@.* ",
"H -.*+=+-+` ` ` ` ` ` ` ` ` 3.A 3.` ` ` ` ` ` ` ` ` ` D *.=.@.* ",
"H -.;+>+D.Q ` ` ` ` ` ` ` Q b.A ,+&.S ` ` ` ` ` ` ` V s ..=.@.* ",
"H -.++c.'+^.&.S ` ` ` ` ` ^.)+A 9.&.S ` ` ` ` ` ` ` V A ..=.@.* ",
"H -.++!+~+^.&.S ` ` ` ` ` ^.{+]+b.` ` ` ` ` &.S ` ` V s ..=.@.* ",
"H -.^+/+&./.` ` ` ` ` ` ` /.s.A {.` ` ` ` ` &.S ` ` ` D *.=.@.* ",
"H -.;.Z V ` Y Y Y ` (+_+O ` }.:+}.X Z Z P ^.V V R ^.Y <+[+=.@.* ",
"}+|+1+A s 2+3+A 3+2+4+5+3+2+6+7+6+8+9+0+a+b+c+t d+b+e+A f++.+ * ",
"g+h+i+j+k+l+m+m+m+l+n+o+m+l+p+q+p+r+s+t+u+v+k+k+w+v+m+x+y+z+A+i ",
"B+C+D+E+F+F+F+F+F+F+G+G+G+F+H+H+H+I+J+J+K+F+F+F+F+F+F+L+M+N+. : ",
"O+P+Q+# # # # # # # # # # # # # # # # # # # # # # # # R+- S+* = ",
"i T+U+V+V+V+V+V+V+V+V+V+V+V+V+V+V+V+V+V+V+V+V+V+V+V+V+U+W+i X+Y+"};
