/* XPM */
static char * img_Empty1_xpm[] = {
"32 32 5 1",
" 	c #FFFFFF",
".	c #D7D7D7",
"+	c #F6F6F6",
"@	c #A1A1A1",
"#	c #EDEDED",
"                                ",
"                                ",
"                                ",
"    .+      .+                  ",
"    .+      .+      .+          ",
"                    .+          ",
"                                ",
"               .+               ",
"               .+    .+   .+    ",
"      .+             .+   .+    ",
"      .+                        ",
"                                ",
"                                ",
"                           .+   ",
"            .+             .+   ",
"            .+                  ",
"                  .+            ",
"                  .+            ",
"         .+              .+     ",
"   .+    .+              .+     ",
"   .+                           ",
"                                ",
"                 .+             ",
"      .+         .+             ",
"      .+              .+        ",
"                      .+        ",
"          .+                    ",
"          @#      .+            ",
"          .+      .+            ",
"                                ",
"                                ",
"                                "};
