/* XPM */
static char *f53b8d62dbf74be3ec70ed123608244eTyQwDUYcVhIO70sx[] = {
/* columns rows colors chars-per-pixel */
"64 64 165 2 ",
"   c None",
".  c #003F00",
"X  c #1A2C1A",
"o  c #253925",
"O  c #2A392A",
"+  c #064506",
"@  c #004C00",
"#  c #084108",
"$  c #0C4B0C",
"%  c #025302",
"&  c #015C01",
"*  c #0C530C",
"=  c #0B5A0B",
"-  c #154215",
";  c #1A431A",
":  c #1C4C1C",
">  c #125D12",
",  c #1C541C",
"<  c #1E5B1E",
"1  c #016401",
"2  c #006C00",
"3  c #0C630C",
"4  c #0C6D0C",
"5  c #017401",
"6  c #007C00",
"7  c #0C750C",
"8  c #0C7D0C",
"9  c #126212",
"0  c #126F12",
"q  c #1C631C",
"w  c #1C6C1C",
"e  c #117111",
"r  c #147B14",
"t  c #1C7B1C",
"y  c #254425",
"u  c #224A22",
"i  c #2D4C2D",
"p  c #235423",
"a  c #245924",
"s  c #2F5A2F",
"d  c #334033",
"f  c #354C35",
"g  c #3D423D",
"h  c #3E4F3E",
"j  c #345334",
"k  c #325B32",
"l  c #3A533A",
"z  c #246224",
"x  c #246C24",
"c  c #2C632C",
"v  c #286E28",
"b  c #247524",
"n  c #237A23",
"m  c #2B732B",
"M  c #2A7E2A",
"N  c #336333",
"B  c #306D30",
"V  c #396039",
"C  c #396A39",
"Z  c #357E35",
"A  c #4B4F4B",
"S  c #435443",
"D  c #445D44",
"F  c #457F45",
"G  c #008300",
"H  c #018B01",
"J  c #0D830D",
"K  c #0A8C0A",
"L  c #009400",
"P  c #009C00",
"I  c #0B920B",
"U  c #0B9C0B",
"Y  c #118411",
"T  c #138A13",
"R  c #1B851B",
"E  c #1B8E1B",
"W  c #139213",
"Q  c #119D11",
"!  c #1B911B",
"~  c #1E9D1E",
"^  c #00A300",
"/  c #00AC00",
"(  c #0BA50B",
")  c #0BAC0B",
"_  c #00B300",
"`  c #00BC00",
"'  c #0AB30A",
"]  c #0BBC0B",
"[  c #14A614",
"{  c #13AD13",
"}  c #1BA51B",
"|  c #13B313",
" . c #12B812",
".. c #1AB31A",
"X. c #218221",
"o. c #238B23",
"O. c #229722",
"+. c #229722",
"@. c #209A20",
"#. c #209F20",
"$. c #279C27",
"%. c #229B22",
"&. c #2A962A",
"*. c #2A962A",
"=. c #2B9A2B",
"-. c #299D29",
";. c #2C9B2C",
":. c #338733",
">. c #338733",
",. c #328932",
"<. c #328932",
"1. c #3F8B3F",
"2. c #359635",
"3. c #359635",
"4. c #25A425",
"5. c #25A425",
"6. c #23AA23",
"7. c #24AC24",
"8. c #25AC25",
"9. c #2BA62B",
"0. c #2BA62B",
"q. c #2EB32E",
"w. c #00C000",
"e. c #00C100",
"r. c #00C200",
"t. c #00C300",
"y. c #03C203",
"u. c #03C303",
"i. c #00C400",
"p. c #00C500",
"a. c #01C401",
"s. c #00C600",
"d. c #00C700",
"f. c #01C701",
"g. c #05C105",
"h. c #00C400",
"j. c #00C800",
"k. c #00C900",
"l. c #00CA00",
"z. c #00CB00",
"x. c #00CC00",
"c. c #00CD00",
"v. c #00CE00",
"b. c #02CE02",
"n. c #03CE03",
"m. c #04C804",
"M. c #00CA00",
"N. c #00D000",
"B. c #00D100",
"V. c #01D001",
"C. c #00D300",
"Z. c #00D400",
"A. c #00D500",
"S. c #00D600",
"D. c #00D300",
"F. c #00D800",
"G. c #01DC01",
"H. c #00D900",
"J. c #00E100",
"K. c #01E201",
"L. c #01E201",
"P. c #448044",
"I. c #448444",
"U. c #438843",
"Y. c #438843",
/* pixels */
"O.g.i.i.` G ` H / L 5 6 / _ / / 6 ` H _ H ` j.x.` * X ] j.L i.F.C i.i.i.j.j.P i.x.L Z.Z.L P ^ ^ / ^ t     ] H L / ` ` w.j.` 5 a ",
"  { w.w._ H j.L L H / 2 % 6 ^ 0 5 _ H ^ 6 w.L P P U = & 5 L _ K.g.^ ^ i.` P P P x._ C.x.x.L H H e n     <.K P 2 L P P ^ / I M A ",
"  F ! _ P H j.j.j.j.i.^ 2 5 L K H P ` w.1 H L / / ` H 1 & H / P K.^ / _ _ P ` / Z._ L L L H / ^ c       L _ x.P j.i.i.w.K x     ",
"  g h R L i.j.j.j.j.i.j.^ @ H ^ ` L ^ _ 1 P / ` ` / P 6 6 P L G 2 U H P _ ^ i.i._ 2 G P / K 1 g.      b ` F.F.w.H i.i.8.        ",
"  l S o * K m.j.j.j.i.w.` 5 H L ` w.L 1 G _ ` _ / w.^ P H P ^ 2 % 2 5 _ / j.j.j./ H / i.x.` H ]       } C.Z.Z.Z.J ..8.          ",
"T W R @.E n ' i.j.j.` w.` H G H _ G 5 @ _ w.w.w.P / P ^ / _ _ / 5 2 P ` _ _ i.` / ` i.x.j._ ^  .      V.C.L P P a c         A N ",
"_ ` _ w.` v Z [ ` ` / ^ P _ 1 6 5 G 6 _ w.w.w.^ / / _ L L G ^ L / P ` P _ _ ^ _ w.^ j.i.` ` _ #.  i G L ^ ^ _ ` [ ..Y.    y q L ",
"i.w.i.w._     s K P H L w.L P / P ^ G / w.w.w.^ _ ^ ` L L G P H w.^ w.5 L / P ^ _ P _ ^ j.i.K m   < / _ _ ` ` w.j.i. .X.>.8 _ ` ",
"w.H H w._ V     H G ` ` w.L _ j.j._ H L w.i.i.w.P 6 P / _ P L j.j.^ / 2 1 2 L P L _ / / / ` _ X.  g.` i.i.w.` i.j.j...v ..P w.i.",
"L L P L / s   B _ ` w.i.i.P L / / P 6 2 ` ` _ ^ G & P x.C.w.^ H j.L .. .7 6 ` i._ / i.` / ` I $.=.K i.i.j.i.` i.j.j.4.  ' _ w.H ",
"/ ` ` _ L * c K / ` L P 6 G ^ x.x.i._ 6 r ( ^ L & G / i.x.Z./ H ` p   2.*.K ` w._ / j.w./ _ U 0.t P j.j.i.j.` ` ` 0.    W w.L P ",
"w.i.j.i._ P 3 5 L ^ 6 P ` j.x.Z.Z.Z.x.` J e ^ ^ G _ ` i.j.C.` H J k     o.^ ` _ _ i.j.w.L P w.} T ` i.i.j.L P G e l     R P _ ` ",
"i.i.j.i.j.` H 6 1 6 H i.C.C.C.Z.C.C.x.m...8 K ^ G _ i.i.i.x.j./ = > J & 6 P / _ w.w.w._ H H _ Q 7 _ _ ` L ^ _ ^ I v   f @.H ` j.",
"j.i.j.j.H H _ 5 @ G w.j.x.C.C.C.C.C.] { 5.E ) ^ G w.j.j.j.C.Z.L 1 6 L P 5 H ^ / _ ` _ ^ / x./ ^ r H 6 H L ^ ` _ ` ( ! m Y.- P j.",
"i.i.i.j.L L L H 2 5 P _ ` w.i.x.j.w._ ' r n ! / G i.Z.Z.Z.F.C.H ^ ` w.w.G H L / / w.i._ / x.w.U r 7 L ^ / ` ` _ ` / _ ' M O a _ ",
"^ i.H L P / / _ P L x._ ` ^ P _ / _ g._ ` J r ) _ x.Z.F.Z.Z._ 6 w.i.i.i.^ % G G P w.w._ / w._ ^ P 5 H ^ ^ / ^ ^ ^ _ ` w.' ; y $ ",
"1 / H / _ ` _ ` ^ ` x.x./ L P P H w.' U P P 3 } K ( m.Z.Z.i.L G i.i.i.j./ 2 1 @ 6 P / / x._ / H 5 G H ^ _ _ P ^ _ _ _ w.` H 5 = ",
"2 2 L ` ` _ _ ` _ G x.j._ _ G 6 K 9 T K ^ L I w ;.b 8.C.Z.^ H G i.i.i.j.^ H 5 H 2 5 6 H _ H 7 8 L H K L ^ _ P ^ _ _ _ _ L 6 1 ^ ",
"6 G _ ` H G / _ / 6 j.j./ P L U U 8 6 ) ) / ' T m     ] / L H H i.i.i.i.P w.G G ^ P J K K t 9 ^ ` _ P G G J K ^ / ^ L H H 6 L & ",
"w.P _ ` H H 6 6 P 1 P / L ^ P I { ^ L H ] ' ` / b i   k 4 2 w.i.i.i.i.` / i.L 6 L i.` ( I.M r ` i.w.` P G 5 1 G P 5 H ` x.x./ & ",
"H / _ G H P L G 2 G P ` P _ ` _ ] ) _ L i.` _ _ / 0 j O x ^ w.i.i.w.` _ L j.G H P j.H 0 D i P i.i.i.i.` ^ 6 6 P P G P i.x.x.j.H ",
"6 _ ` G G P P 2 5 G / _ L ` ` w._ U ) K ' _ / _ _ _ > S v H ` w.i.` ^ P G ` 6 ) G w.5 3 o.7 _ i.i.i.i.w._ 6 G / _ L _ ` j.x.x.^ ",
"6 _ _ H ^ H 6 L L P / j.^ / w.w._ P _ P ` w.w.` ` w.P U + 5 _ w._ 8 1 & G L 5 L & % 6 P 6 P _ i.i.j.w.` ^ 6 H _ _ L / w.j.x.x.x.",
"6 / 6 2 % 2 H L P ^ ^ _ P ` w.w.^ / _ P i.j.j.i.w.` P 2 H 2 5 K z : 1 L F.F.2 5 & H / i.L _ _ w.w.` ^ H H _ / L H 6 / G i.j.C.Z.",
"2 2 G 1 2 P _ ` ` ` _ ` 5 / ` _ _ ` ` 6 5 _ / ` w._ L 5 ^ 5 . & 9 ; * L Z.^ 5 G 6 / i.x.P ^ P _ / ^ P P ` ^ ^ L ^ 5 L G H i.x.C.",
"5 H P G 6 / ` w.` w.w.` 2 ^ _ ^ ` ` ` 5 5 6 6 H P G L 1 w.` 5 _ w.( U P 5 / 6 ^ _ G i.j.x.j.w.L j.j.j.i./ G L L L ^ _ ^ L G x.w.",
"+ L _ ^ L ^ ` w.g.` w.P H 6 G L / ` / @ 5 P ` _ H G ` ^ H w.6 w.w.i.` ' H 6 6 _ _ _ P w.j.j.i.i.i.j.w.w.P H / _ ` ` ' / ^ ` x.P ",
"6 / ^ ` _ ^ w.w.` ` _ * P ^ G 6 L ^ H 1 H _ j.j.j.i.i.` P @ 6 w.i.i.i.w.K 5 / _ / _ _ P _ ` j.w.w.` ^ P H / _ ` ` _ / i.H 6 ` K ",
"K G P P G H _ / / ^ 5 > _ _ _ / G G 2 % i._ j.j.j.j.j.j.` 6 H w.i.i.i.w._ 6 G _ / / _ 6 G 3 P ` / P 2 / _ / ` _ ^ ^ x.w.G 5 ^ u ",
"U L / _ _ ^ G G L H H G ^ / _ _ _ _ 7 - + L ` j.j.j.j.i.j._ P i.i.i.i.i.( 6 6 _ _ / / / 4 : u * 5 2 H / / P L ^ P x.C.` G H q z ",
", P / ` ` ` _ P 1 1 L L ^ / _ _ _ _ T     : L i.j.j.j.j.j.w.6 i.i.i.w.i.` 9 = _ _ _ / ^ 6 ) @.q * L H H L 6 6 P P x.j.^ H 6 r a ",
"N i.j.i.i.i._ 6 ` L w.Z.L / / _ _ _ !     F = / w.j.j.j.j.j.4 ) ` i.i.i.' - @ P _ _ ^ G / _ _ ^ K G H / L ^ ` _ ^ K X.Y i.j._ q.",
"C i.i.i.j.j.P i.x.L Z.Z.L P ^ ^ / ^ n     ] H L / ` ` i.j.` 4 a %.g.i.i.` G ` H / L 5 6 / _ / ^ 6 ` H _ H ` j.x.` * X ] j.L i.G.",
"] ^ / i.` P P P x./ C.x.C.L H H e n     <.H P 2 L P P ^ / I M A   { w.w._ L j.H P H / 1 % 6 ^ 0 5 _ H ^ 6 i.L P P U * & 6 L _ K.",
"K.^ ^ _ _ L ` / Z._ H L L H / ^ c       L _ C.P i.i.i.i.H x       P.! _ P H j.j.j.j.i.^ 2 5 P K G ^ ` ` 2 G L / / ` G 1 & G / P ",
"5 P H P _ ^ i.i._ 5 G P / K 1 g.      b ` Z.F.w.H w.w.6.          g S t H j.j.j.j.j.j.j.^ @ H ^ w.L ^ _ 1 P / ` ` _ P 6 6 P L G ",
"% 2 5 _ _ j.j.i._ H / w.x.` L ]       [ x.Z.Z.Z.J ..8.            l S O * G j.j.j.j.w.i.` 2 H L w.w.L 1 G _ w._ _ i./ P L P ^ 2 ",
"5 2 L ` _ _ j.` / _ j.x.i._ P  .      m.C.L P P p c         A N E W R @.! n | i.j.i.` w.` H G L _ G 5 @ _ ` w.w.P ^ L ^ / / _ / ",
"_ P ` P _ _ ^ _ i.^ j.i.w.` / 5.  i K L ^ ^ _ ` [ ..Y.    y q L _ _ ` ` ` v Z [ ` ` / ^ P _ & 6 5 G 6 _ ` w.w.^ / / _ L L G / L ",
"i.^ ` 5 L / P ^ _ P _ ^ i.j.K m   < ^ ` _ ` ` i.j.j. .X.>.8 _ w.i.i.w.w.`     s I L L H i.L P _ ^ P G / w.w.w.^ _ ^ _ L L G P H ",
"j.^ / 2 1 2 L L L _ / / _ ` _ X.  m.` i.i.i.` w.j.j...B | P w.i.i.H G w._ k     L G ` w.w.L _ j.i._ L L w.` w.` P 6 P / _ P L j.",
"i.L .. .7 G ` i.` ^ i.` / ` I -.&.K i.j.i.i.` i.i.j.4.   ._ w.H L L P L / k   B ) ` w.i.i.P L / / ^ 5 2 ` ` ` ^ G & P j.C.w.^ H ",
"` p   2.&.K ` i._ / j.i./ _ U 0.t P i.i.i.i.` ` ` 0.    W i.L P / ` ` _ L * c I / ` L P 5 G ^ j.j.w._ 6 8 U P L & G / j.x.C./ H ",
"Y k     X.^ ` _ _ i.i.w.H P w.[ T ` i.i.j.L P H e l     R L _ w.i.i.i.i._ P 3 5 L / 5 ^ ` j.C.Z.Z.Z.x.` T e / ^ G _ ` w.j.C.` H ",
"= > 6 = G L / _ i.w.w._ H H _ Q 7 _ _ ` L P _ ^ K v   f #.H ` i.j.i.i.i.j.` L 5 & 6 H w.Z.Z.Z.Z.Z.C.C.m.7.J H ^ G _ j.i.i.x.j./ ",
"1 G L P 5 L ^ / _ ` _ ^ / x./ ^ r L 6 G P / ` _ ` ( E v Y.; P i.j.i.j.j.L H _ 5 % 6 i.j.x.C.Z.Z.C.C.] { #.E ..^ G i.j.j.x.C.C.L ",
"^ ` w.w.G H L ^ / w.w.` / x.i.U 8 7 L ^ ^ ` ` / ` / ` ' M O < / i.i.i.j.L L P G 2 5 P _ ` w.i.x.j.w./ ' Y n ! / G w.Z.Z.Z.Z.C.H ",
"` i.i.w.^ % H G P w.` / / i./ ^ U 5 H ^ / / ^ ^ / _ ` w.' ; y $ ^ w.H L P ^ / _ P L x._ ` ^ P _ / _ i.' ` J r ) _ x.F.Z.F.Z._ 6 ",
"i.i.j.j./ 2 1 @ 6 P _ / j._ / K 5 G L ^ _ _ P ^ _ _ _ ` ` H 5 = 1 / H / _ ` _ ` ^ ` x.x./ L P P H w.) U P P 3 } K ( m.Z.Z.i.L G ",
"i.i.i.i.^ L 5 H 2 2 6 H _ H 7 6 H H G L ^ ' P ^ _ _ _ _ L 6 & / 2 5 L ` ` _ _ ` _ G x.j./ _ G G K 3 K K ^ P K w ;.b 8.Z.Z.^ G H ",
"i.i.i.j.P ` G G ^ P G K K t 9 ^ ` ` ^ 6 G J K / / ^ L H H G L & 6 G _ ` H G / _ _ 6 j.x._ P H U Q 8 G { ) / ' T m     ' / L H H ",
"i.i.w.w./ i.L 6 P i.' ) I.M t ` i.w.` P G 5 1 G P 5 H ` j.x./ & w.L _ ` H G 6 6 L 1 P / L ^ P I { ^ L H ] ' _ _ b f   c 4 2 w.w.",
"i.w.` _ L x.6 H P j.H 0 D i U i.i.i.i.` ^ 6 6 P P G P i.j.x.j.H H / _ G H ^ L 6 2 G P ` L _ _ _ ] ) _ H i.` _ _ ^ 0 l O x ^ w.i.",
"w.` / L G ` 6 _ G ` 5 3 o.5 _ w.i.i.i.i._ 6 G / _ L _ ` j.x.x.^ 6 ` _ H G P P 2 5 H / / P ` w.w._ U ) L ' ) _ _ _ _ > S x H ` i.",
"' 8 1 & G L 5 L & % 6 P 5 ^ _ i.i.i.w.` ^ 6 L _ _ L / w.j.x.C.x.5 _ _ H ^ G 6 L L P / x.^ / w.w._ P _ P ` w.w.` w.` P I # 5 _ w.",
"q : 1 L Z.F.2 5 1 H / i.L _ _ w.w.` ^ H H / / L H 6 / G j.j.x.Z.6 / 6 2 & 2 H L P ^ ^ _ P ` ` ` / ^ _ P i.j.j.i.i.w.P 5 H 2 5 K ",
"9 ; * L Z.^ 5 G 6 / i.x.P / P _ / / P P ` ^ ^ L ^ 5 L G H i.j.C.5 2 G 1 2 P _ _ ` ` _ ` 5 / ` ` ` _ ` 6 5 _ _ ` w._ L 5 ^ 5 . 1 ",
"w.^ U P 5 / 6 / _ G i.x.j.j.` L j.j.i.i./ G L L L ^ / ^ L H x.i.5 H P G G / ` ` w.w.w.` 2 ^ / / _ w._ 6 5 6 6 H P G L 2 w._ 5 _ ",
"i.w.` ' H 6 6 / _ _ P w.j.x.w.i.i.j.i.w.P H / _ ` ` _ _ ^ ` C.L + L _ ^ L ^ w.w.g.w.w.L H 6 H L _ ` / @ 2 P ` _ G G ` ^ H w.5 w.",
"i.i.w.w.K 5 / / / _ _ L _ ` j.w.` ` ^ P H / _ ` ` _ / j.H 6 w.G 5 / ^ ` _ ^ w.w.` ` _ * P ^ 6 6 L P H 2 H _ j.j.j.j.i.` P @ 6 w.",
"i.i.i.w.' G G _ _ / / G 6 3 P _ ^ P 2 _ _ / ` _ ^ ^ x.w.G 5 ^ u K 6 P ^ G H _ / / ^ 2 > _ _ _ / G G 1 & i./ j.j.j.j.i.j.` 6 H w.",
"i.i.i.i.( 6 6 _ / _ / / 2 p u = 5 2 G / / P L ^ U x.C.` G H q z U L / _ _ ^ G G L H L G ^ / _ _ _ _ 7 - + L w.j.j.j.j.j.j.` L i.",
"i.i.w.i.' 3 = _ _ _ / P 6 ( ~ q * L H H L 6 6 P P x.i.^ H 6 r a , ^ / ` ` ` _ P 1 1 L L ^ / _ _ _ _ W     : L j.j.j.j.j.i.w.6 i.",
"g.i.i.i._ $ * L _ _ / G _ _ _ ^ H G H / L ^ ` _ ^ K X.Y i.j._ q.N i.i.i.j.i./ 6 ` L w.Z.L / / / _ _ E     F = / w.j.j.j.j.i.7 ) "
};
