/* XPM */
static char *_748952ac7604fdad7058bc48b68fb52g7WbVhAa1TV9ThWc[] = {
/* columns rows colors chars-per-pixel */
"64 64 36 1 ",
"  c #000039",
". c #00003A",
"X c #010049",
"o c #010055",
"O c #01005F",
"+ c #010168",
"@ c #010170",
"# c #010177",
"$ c #02017E",
"% c #02017F",
"& c #020185",
"* c #02018B",
"= c #17018C",
"- c #1D018C",
"; c #17168B",
": c #2F018E",
"> c #32018F",
", c #3E0191",
"< c #400191",
"1 c #470193",
"2 c #490193",
"3 c #510195",
"4 c #530196",
"5 c #5A0197",
"6 c #5C0198",
"7 c #62019A",
"8 c #63019A",
"9 c #69019C",
"0 c #6B019C",
"q c #70019E",
"w c #71019E",
"e c #7501A0",
"r c #7601A0",
"t c #0073D4",
"y c #00E2FF",
"u c white",
/* pixels */
"....            ............... . ..... ............   ..   ....",
"XXXXXXXXXXXXXXXXXXXXXXXXXXXXXXXXXXXXXXXXXXXXXXXXXXXXXXXXXXXXXXXX",
"oooooooooooooooooooooooooooooooooooooooooooooooooooooooOoooooooo",
"OOOOOO++OOOOOOOOOOOOOOOOOOOOOOO+OOOOOOOOOOOOOOOOOOOOOOO+OOOOOOOO",
"++++++++++++++++++++++++++++++++++++++++++++++++++++++++++++++++",
"@+++@@++@@++++@@#+@@@@@+++@+@@@+@@@+++@@#+@@@@@+++#+@+++@+#+++@@",
"$$##&##$&##$##&#####$###&$##&###&####$&#####$###&###&###&####$&#",
"$&$$$$$$$$$&$$$$$$$$&$$$$$$$$$$$$$$$$$$$$$$$&$$$$$$&$$$$$$$$$$$$",
"&&&&&&&&&&&&&&&&&&&&&&&&&&&&&&&&&&&&&&&&&&&&&&&&&&&&&&&&&&&&&&&&",
"****************************************************************",
"****************************************************************",
"****************************************************************",
"****************************************************************",
"tttttttttttttttttttttttttttttttttttttttttttttttttttttttttttttttt",
"yyyyyyyyyyyyyyyyyyyyyyyyyyyyyyyyyyyyyyyyyyyyyyyyyyyyyyyyyyyyyyyy",
"uuuuuuuuuuuuuuuuuuuuuuuuuuuuuuuuuuuuuuuuuuuuuuuuuuuuuuuuuuuuuuuu",
"yyyyyyyyyyyyyyyyyyyyyyyyyyyyyyyyyyyyyyyyyyyyyyyyyyyyyyyyyyyyyyyy",
"tttttttttttttttttttttttttttttttttttttttttttttttttttttttttttttttt",
";;;;;;;;;;;;;;;;;;;;;;;;;;;;;;;;;;;;;;;;;;;;;;;;;;;;;;;;;;;;;;;;",
";;;;;;;;;;;;;;;;;;;;;;;;;;;;;;;;;;;;;;;;;;;;;;;;;;;;;;;;;;;;;;;;",
";;;;;;;;;;;;;;;;;;;;;;;;;;;;;;;;;;;;;;;;;;;;;;;;;;;;;;;;;;;;;;;;",
";;;;;;;;;;;;;;;;;;;;;;;;;;;;;;;;;;;;;;;;;;;;;;;;;;;;;;;;;;;;;;;;",
";;;;;;;;;;;;;;;;;;;;;;;;;;;;;;;;;;;;;;;;;;;;;;;;;;;;;;;;;;;;;;;;",
";;;;;;;;;;;;;;;;;;;;;;;;;;;;;;;;;;;;;;;;;;;;;;;;;;;;;;;;;;;;;;;;",
";;;;;;;;;;;;;;;;;;;;;;;;;;;;;;;;;;;;;;;;;;;;;;;;;;;;;;;;;;;;;;;;",
";;;;;;;;;;;;;;;;;;;;;;;;;;;;;;;;;;;;;;;;;;;;;;;;;;;;;;;;;;;;;;;;",
";;;;;;;;;;;;;;;;;;;;;;;;;;;;;;;;;;;;;;;;;;;;;;;;;;;;;;;;;;;;;;;;",
";;;;;;;;;;;;;;;;;;;;;;;;;;;;;;;;;;;;;;;;;;;;;;;;;;;;;;;;;;;;;;;;",
";;;;;;;;;;;;;;;;;;;;;;;;;;;;;;;;;;;;;;;;;;;;;;;;;;;;;;;;;;;;;;;;",
";;;;;;;;;;;;;;;;;;;;;;;;;;;;;;;;;;;;;;;;;;;;;;;;;;;;;;;;;;;;;;;;",
";;;;;;;;;;;;;;;;;;;;;;;;;;;;;;;;;;;;;;;;;;;;;;;;;;;;;;;;;;;;;;;;",
";;;;;;;;;;;;;;;;;;;;;;;;;;;;;;;;;;;;;;;;;;;;;;;;;;;;;;;;;;;;;;;;",
";;;;;;;;;;;;;;;;;;;;;;;;;;;;;;;;;;;;;;;;;;;;;;;;;;;;;;;;;;;;;;;;",
";;;;;;;;;;;;;;;;;;;;;;;;;;;;;;;;;;;;;;;;;;;;;;;;;;;;;;;;;;;;;;;;",
";;;;;;;;;;;;;;;;;;;;;;;;;;;;;;;;;;;;;;;;;;;;;;;;;;;;;;;;;;;;;;;;",
"tttttttttttttttttttttttttttttttttttttttttttttttttttttttttttttttt",
"yyyyyyyyyyyyyyyyyyyyyyyyyyyyyyyyyyyyyyyyyyyyyyyyyyyyyyyyyyyyyyyy",
"uuuuuuuuuuuuuuuuuuuuuuuuuuuuuuuuuuuuuuuuuuuuuuuuuuuuuuuuuuuuuuuu",
"yyyyyyyyyyyyyyyyyyyyyyyyyyyyyyyyyyyyyyyyyyyyyyyyyyyyyyyyyyyyyyyy",
"tttttttttttttttttttttttttttttttttttttttttttttttttttttttttttttttt",
"****************************************************************",
"****************************************************************",
"****************************************************************",
"****************************************************************",
"****************************************************************",
"****************************************************************",
"****************************************************************",
"****************************************************************",
"****************************************************************",
"****************************************************************",
"****************************************************************",
"****************************************************************",
"****************************************************************",
"****************************************************************",
"-==--=-===-==-===--====-======--=:=====:--==:=-=--===-===----===",
":>::>:>:>>:>:>::>:>::::>::>::>:::>::::::::::::::>>:::>::::::>>>>",
"<<,<<<,<,,<,,<<,<<,<<<<<<<,<,,,,<,,,,<,,,,,<,,<<,,<,,,,,,,<,,,<,",
"1111111122111111111111111111111111111111111111112122211212222222",
"3443444333444444444444333444443444444444443344433343344333443444",
"6656666566656666655566556656665555556666555566666666665655565666",
"0777760588888788777677590777977757970750777777680777888888888777",
"0000000000000000000000000000000909900000000000000900000000000000",
"e00e0ee00rqwqq0eqqqq0e0ee00ee00ee00ee00eqqqqqq0ee00ewwwww0wwqqqq",
"eeeerrrrrerrreeqreeeeereeeeereeeeeeeeeeerrrreeeeeeeerrrrrrrrrrqq"
};
