/* XPM */
static char * light_purp_wall_xpm[] = {
"64 64 6 1",
" 	c None",
".	c #2F2E2F",
"+	c #85578E",
"@	c #BE9BB0",
"#	c #564064",
"$	c #3E2F5A",
"................................................................",
"................................................................",
"..++@@@@@@@@@@@@@@@@@@@@++..++@@@@@@@@@@@@@@@@@@@@@@@@@@@@@@++..",
"..++@@@@@@@@@@@@@@@@@@@@++..++@@@@@@@@@@@@@@@@@@@@@@@@@@@@@@++..",
"..@@++++++++++++++++++++@@..@@++++++++++##++++++##++++++++++@@..",
"..@@++++++++++++++++++++@@..@@++++++++++##++++++##++++++++++@@..",
"..++++########++######++++..++++####++######++########++##++++..",
"..++++########++######++++..++++####++######++########++##++++..",
"..++################$$$$++..++$$$$##########################++..",
"..++################$$$$++..++$$$$##########################++..",
"..##++####$$$$$$$$$$$$$$$$..$$$$$$$$$$$$####$$$$$$$$$$########..",
"..##++####$$$$$$$$$$$$$$$$..$$$$$$$$$$$$####$$$$$$$$$$########..",
"..$$####$$$$$$$$$$$$$$$$......$$$$$$$$$$$$$$$$$$$$$$$$$$####$$..",
"..$$####$$$$$$$$$$$$$$$$......$$$$$$$$$$$$$$$$$$$$$$$$$$####$$..",
"................................................................",
"................................................................",
"..##++++++++++++++++++++++++++++++++++++++++++++++++++++++++##..",
"..##++++++++++++++++++++++++++++++++++++++++++++++++++++++++##..",
"..++++++++++++++++++++++++++++####++++++++++++++++++++++++++++..",
"..++++++++++++++++++++++++++++####++++++++++++++++++++++++++++..",
"..++++######++####++######++########++##++++##++++##++####++++..",
"..++++######++####++######++########++##++++##++++##++####++++..",
"..++##++##############$$######$$$$$$####################++##++..",
"..++##++##############$$######$$$$$$####################++##++..",
"..++##########$$####$$$$$$############$$$$####$$##$$##########..",
"..++##########$$####$$$$$$############$$$$####$$##$$##########..",
"..##++######$$$$$$$$$$$$$$$$$$$$####$$$$$$$$$$$$$$$$$$########..",
"..##++######$$$$$$$$$$$$$$$$$$$$####$$$$$$$$$$$$$$$$$$########..",
"..$$####$$$$$$$$$$$$$$$$$$$$$$$$$$$$$$$$$$$$$$$$$$$$$$$$####$$..",
"..$$####$$$$$$$$$$$$$$$$$$$$$$$$$$$$$$$$$$$$$$$$$$$$$$$$####$$..",
"................................................................",
"................................................................",
"..##++++++++++++++++......++++++++++++++++++++++++++++++++++##..",
"..##++++++++++++++++......++++++++++++++++++++++++++++++++++##..",
"..++++++++++++##++++++..++++++++++++##++++++++++++++++++++++++..",
"..++++++++++++##++++++..++++++++++++##++++++++++++++++++++++++..",
"..++++++##++######++++..++++####++########++####++++++##++++++..",
"..++++++##++######++++..++++####++########++####++++++##++++++..",
"..++++####$$########++..++##########$$####$$######++##++##++++..",
"..++++####$$########++..++##########$$####$$######++##++##++++..",
"..++##++####$$######$$..$$########$$$$######$$##############++..",
"..++##++####$$######$$..$$########$$$$######$$##############++..",
"..++########$$$$##$$$$..$$$$##$$$$$$####$$######$$$$##########..",
"..++########$$$$##$$$$..$$$$##$$$$$$####$$######$$$$##########..",
"..##++####$$$$$$$$$$$$..$$$$$$$$$$$$$$$$$$$$##$$$$$$$$########..",
"..##++####$$$$$$$$$$$$..$$$$$$$$$$$$$$$$$$$$##$$$$$$$$########..",
"..$$##$$$$$$$$$$$$$$......$$$$$$$$$$$$$$$$$$$$$$$$$$$$$$####$$..",
"..$$##$$$$$$$$$$$$$$......$$$$$$$$$$$$$$$$$$$$$$$$$$$$$$####$$..",
"................................................................",
"................................................................",
"..##++++++++++++++++++++++++++++++++++++++++++++++++++++++++##..",
"..##++++++++++++++++++++++++++++++++++++++++++++++++++++++++##..",
"..++++++##++++++++++++++++##++++++##++++++++++++++++++++++++++..",
"..++++++##++++++++++++++++##++++++##++++++++++++++++++++++++++..",
"..++++++++##++++++####++######++######++##++++++####++++##++++..",
"..++++++++##++++++####++######++######++##++++++####++++##++++..",
"..++######++$$++$$############$$############++##########++++++..",
"..++######++$$++$$############$$############++##########++++++..",
"..##########$$$$$$$$##$$$$##########$$$$##$$####$$############..",
"..##########$$$$$$$$##$$$$##########$$$$##$$####$$############..",
"..$$######$$$$$$$$$$$$$$$$$$$$$$##$$$$$$$$$$$$$$$$$$########$$..",
"..$$######$$$$$$$$$$$$$$$$$$$$$$##$$$$$$$$$$$$$$$$$$########$$..",
"................................................................",
"................................................................"};
