/* XPM */
static char *_ea5a6f3e94b45dbf49af83565019e8dqrDTKEZAkm6Ynb73[] = {
/* columns rows colors chars-per-pixel */
"64 64 35 1 ",
"  c #0B0B43",
". c #111053",
"X c #111054",
"o c #151461",
"O c #18186C",
"+ c #18186D",
"@ c #1C1B76",
"# c #1C1B77",
"$ c #1E1E80",
"% c #1F1E80",
"& c #212088",
"* c #242390",
"= c #262597",
"- c #28279E",
"; c #2F279F",
": c #33279F",
"> c #3E26A0",
", c #4026A1",
"< c #4926A2",
"1 c #4B26A3",
"2 c #5325A4",
"3 c #5126A4",
"4 c #5A25A5",
"5 c #5B25A6",
"6 c #6225A7",
"7 c #6325A7",
"8 c #6A24A9",
"9 c #6F24AA",
"0 c #7024AB",
"q c #7523AC",
"w c #7A23AD",
"e c #7B23AD",
"r c #0073D4",
"t c #00E2FF",
"y c white",
/* pixels */
"                                                                ",
"..........XX....XXXXXXXXX...XXXX..XXX...XXXXXXXXXX..X......X....",
"ooooooooooooooooooooooooooXOooooXOXooooooooooooooooooooooooooooo",
"OOOOOOOOOOOOOOOOOOOOOOOOOOOOOOOOOO#OOOOOOOOOOOOOOOOOOOOOOOOOOOOO",
"################################################################",
"$$$$$#$$%$$$#&$$%%%%&$#$&#%%%#$$$$$%#%%%#&%%#&#$&#%%&#%%$$$##&$#",
"&&&&&&&&&&&&&&&&&&&&&&&&&&&&&&&&&&&&&&&&&&&&&&&&&&&&&&&&&&&&&&&&",
"****=****************&******=***************&=**&=*******=*****=",
"================================================================",
"----------------------------------------------------------------",
"----------------------------------------------------------------",
"----------------------------------------------------------------",
"----------------------------------------------------------------",
"rrrrrrrrrrrrrrrrrrrrrrrrrrrrrrrrrrrrrrrrrrrrrrrrrrrrrrrrrrrrrrrr",
"tttttttttttttttttttttttttttttttttttttttttttttttttttttttttttttttt",
"yyyyyyyyyyyyyyyyyyyyyyyyyyyyyyyyyyyyyyyyyyyyyyyyyyyyyyyyyyyyyyyy",
"tttttttttttttttttttttttttttttttttttttttttttttttttttttttttttttttt",
"rrrrrrrrrrrrrrrrrrrrrrrrrrrrrrrrrrrrrrrrrrrrrrrrrrrrrrrrrrrrrrrr",
"----------------------------------------------------------------",
"----------------------------------------------------------------",
"----------------------------------------------------------------",
"----------------------------------------------------------------",
"----------------------------------------------------------------",
"----------------------------------------------------------------",
"----------------------------------------------------------------",
"----------------------------------------------------------------",
"----------------------------------------------------------------",
"----------------------------------------------------------------",
"----------------------------------------------------------------",
"----------------------------------------------------------------",
"----------------------------------------------------------------",
"----------------------------------------------------------------",
"----------------------------------------------------------------",
"----------------------------------------------------------------",
"----------------------------------------------------------------",
"rrrrrrrrrrrrrrrrrrrrrrrrrrrrrrrrrrrrrrrrrrrrrrrrrrrrrrrrrrrrrrrr",
"tttttttttttttttttttttttttttttttttttttttttttttttttttttttttttttttt",
"yyyyyyyyyyyyyyyyyyyyyyyyyyyyyyyyyyyyyyyyyyyyyyyyyyyyyyyyyyyyyyyy",
"tttttttttttttttttttttttttttttttttttttttttttttttttttttttttttttttt",
"rrrrrrrrrrrrrrrrrrrrrrrrrrrrrrrrrrrrrrrrrrrrrrrrrrrrrrrrrrrrrrrr",
"----------------------------------------------------------------",
"----------------------------------------------------------------",
"----------------------------------------------------------------",
"----------------------------------------------------------------",
"----------------------------------------------------------------",
"----------------------------------------------------------------",
"----------------------------------------------------------------",
"----------------------------------------------------------------",
"----------------------------------------------------------------",
"----------------------------------------------------------------",
"----------------------------------------------------------------",
"----------------------------------------------------------------",
"----------------------------------------------------------------",
"-----------------------------------------------------------;----",
":;;::;:;;;:;;:;;->>;-->>-;;;;;>;;;;>;;->;>;;;;>;::;::::::::::;:;",
">,>>,>,>,,>,>,>>>>>>>>>>>>>>>>>>>>>>>>>>>>>>>>>>,,:,:<:,,:,:,,,,",
"<<11<<<1111<<<<<1<<<<11<<<<1111<<<11<<<<11<11<<1111111111111<<1<",
"2222122222222222222222222222222221222222222122222222222222222222",
"4454554444445444454444444444444445555555444444444444444444444444",
"6667776677777747666766666666667767666666777777667774777777777777",
"8888888888889888888888888888888888888888888888787888888888888888",
"0090909999909099000099000909000999000099999990090099000099900909",
"qqqqqqqqqqqqqqqqqqqq0qqqqqqqqqq0qqqqqqqqqqqqqqqqqqqq0qqqqqqqqqqq",
"eeeweeeeeweeeeeweweeeweeeeewweeeeweewwwweeeeeeeeeeeeeeeeeeeeeeee"
};
