/* XPM */
static char *_79c37caec204450b777fdd0defb7403AzW4qaymZnDnnTOK[] = {
/* columns rows colors chars-per-pixel */
"64 64 81 1 ",
"  c #343434",
". c #3C3C3C",
"X c #434343",
"o c #4C4C4C",
"O c #545454",
"+ c #5B5B5B",
"@ c #646464",
"# c #686867",
"$ c #6B6B6B",
"% c #70706F",
"& c #747474",
"* c #787777",
"= c #787877",
"- c #777878",
"; c #7C7C7C",
": c #807F7F",
"> c #7F8080",
", c #838383",
"< c #888887",
"1 c #888788",
"2 c #8C8C8C",
"3 c #8F908F",
"4 c #8F9090",
"5 c #909091",
"6 c #929292",
"7 c #939393",
"8 c #939493",
"9 c #939394",
"0 c gray58",
"q c #949594",
"w c #959596",
"e c gray59",
"r c #989797",
"t c #989897",
"y c #979798",
"u c #989798",
"i c #979898",
"p c #989898",
"a c #99999A",
"s c #9A9B9A",
"d c #9C9C9B",
"f c #9B9B9C",
"g c #9C9B9C",
"h c #9B9C9C",
"j c #9E9E9D",
"k c #9F9F9F",
"l c #9FA09F",
"z c #9F9FA0",
"x c #9FA0A0",
"c c #A0A0A0",
"v c #A1A2A2",
"b c #A3A3A2",
"n c #A3A3A3",
"m c #A3A4A3",
"M c #A3A4A4",
"N c #A4A4A4",
"B c gray65",
"V c #A7A7A6",
"C c #A8A8A7",
"Z c #A7A7A8",
"A c #A7A8A8",
"S c #AAAAAA",
"D c #ABABAB",
"F c #ABABAC",
"G c #ACACAC",
"H c #ACADAC",
"J c #AEAFAF",
"K c #AFAFAF",
"L c gray69",
"P c #B1B0B0",
"I c #B2B1B1",
"U c #B2B3B2",
"Y c #B3B3B3",
"T c #B4B4B4",
"R c #B5B4B4",
"E c gray71",
"W c #B6B7B7",
"Q c gray72",
"! c #BCBCBC",
"~ c gray74",
"^ c #C4C3C4",
/* pixels */
"&;$;,epp2;$##;kx6,,;;#+@@@O;vB6p<&$+@;p2,&$&#@@+#1411l2=%&2--@$;",
"$;;epMpe1=$&eSSp2Dc<=+O&&&%epve6<$++$6ve,;&$@OO+,66;;3;@+#;#Oo+-",
"2yIISv41;=#&JIk21Jv1*+#;;;:6661,&@oO$2p6,;$@##&1x8<&$,&+o+@O X#e",
"SxEIee>2==@&Bl6>;6e;%$;,1;;;11,$++O$;36c6,$$;3zvp1;$+$&;;&#o @z~",
"gevJe;&6<;$;i6<&$&;;,21&,,,;11;$+$@&;<elp,$$6vvp11$XX+;1;&;,;RRI",
"61&;936By<<6v1;&#&1ve2;$><6epr,%$$&,224pe16eJnu1>$O.o#;,:,1p6PzJ",
"2>;;EEJBv6ppve1;$,pBu2&+&3kBe62&$+;<6pvMkevBve1<&OXo;pBkefZSeBez",
"p,11kBBSn1p1hh1;#;ee31;+&kve1&;=;&evvvvBBzvue<<$+.X$1eppSvM9,6ez",
"916ezpe92,24xp1&$;1,,;;+&Be,;@$;62Cvteepe12>;&&$oXo;<etpk6p21kpd",
"&$,66299,$&,k6,&&13ee,&+;Sp1*$%;26Stki22,&$&,;$+Xo@121ep,,1uke,;",
"&$&<623,-##&136euvvk2;#$;pp2&$&%*1vre811$+o#66&+Xo,BSSBEup6p91;;",
"+@$&,,1>&@+$&1pBBSnd11$$=222&&&%&3v2<11&OXO,vk;$@;IEKBvIBvp62;$+",
"O+$$$$&%@++##;BJBSCd6ve;;2e63,&&;r62,11$OX+evp6<2l^ISZvvBM2;;#OO",
"&@@O@@%#+O@&,eSvvedepBmp6t4<d6<1221;&*$OO@,mpe6exVWISvk6p6<&@##&",
";;%+#&;;$+%,kvMSvkkeppepek61pe2,1;;$@+Oo#;6Se42BSxHYJve16,&@O%@$",
"1,1,6e61;$6bJvteiki6e6;eJIv21,1;;#OoooO@1eiSkepJvpmAve<&1,$+@&&%",
",2ee4e<1<,BJJp812pBvk<$yBZt1&;1,$OXooO&ev21vSpkvkeee6<,;;1;11;&@",
"11261,<12<ivB82;;,pxe,$vkv6*;62:+O+#$;vBu8pSIBBd6266>&&&&1ppx1<=",
"pBle1&eek86pp<;&;;kee&+2k2;&1BB61,d,$;vvppIHJNSSv1;,$#@%&1Zv6$&e",
"Mi26<,vx61112<;;,,e11$O;6&&;evJvp,6BkevkpBSBBtvBvk,;$+#:<1Bh6,pI",
"xv3tBvSB6,;11;;;>:<,;@+$862tv8Bvk,;kSvCEISBkh2kp6e1;$@#4ekBke6vJ",
"ve-;iki21<1612&$$&&$O@$&,tCBd66Jr22vBdkESvve6112;;1;&@$hpppvESSS",
"p6,1SBi11JJBt,$@@&&&@$$&;ePNe1,vNtt6e16ve<6e11&,&$,;$$&ckppkHptl",
"Bp1,6kkpSIHh,@oO$,<,$$@;2kbd621eepee1&:2<&;e;&#$;;<;&;1Gvpiex2px",
"Je21emSFSBl61$$2JVe8$@&,2662<1,;;<61<%&,>;$2,&@@$1y<:,pVBk62ppJH",
"vk2,<lSvk6126etE!C<;O+kik33,;;;&$,e8;$;k2;$1;;$#@1yk66vvp2;;vxBe",
"66,1pBApe,,kISkH~E1$o$!Sk61=&&&$$&;1,;6Se2$,18;&#evBe6Sp21#$vBvk",
",1;:,1626,&eJv,6EEJp&1QBCvv6&$OO+$$&,<6ke;#1pp;;,SvkkeBS2,$@evk2",
">&&;;&261;&pBp;6!Ek<;kUSvte221#++$&&;<112;$kk6&1BEESM61ph2;#;pp2",
"&&&&$#&<1,;ee2;eSAve&<QIBp2,,;&&<&&$;,111-;t6&$2Svdve1;122=@$6p1",
"&$@OXX+;<;>11;;26k21&d~Jve<;;$;,k,;+@$;,;=&31+&bJpte11&&;;#O#27:",
";&#+oO;1,;;1>;&;&6ip,662166,;$;,e<$@$;;,;$$&#O1k8;;,,&##&+oO,ce1",
";&$++;z2,&%%##++#1311k2;%&2&&@%;&;$;,epp<-###;kl2,,;=#+@@@+-kM6h",
"<&++%6v6>>%$@OO+,86;;6&@+#;$Oo+&$;;qiBpe1=$&eSSh6Sv1;++&&$%ehme6",
"&@OO$1u5>>%@##&2l81&$1&+OO@O.X$e1pIISv61;;#=JIk31Hv<=+#=;;;3442,",
"++O$:66k6,$#;4kvp2;$O$&;=-#o +v~SvELee>2--@&Bx4;;6e;%#;,1;;;11,$",
"+$#&;1eke>$&6cku11#XX+;1;--,;EEIkyxLe>=21;#;pe1&$-;;:11&,1,;2<;$",
"$@&1222dq24uJvr2,$O.O#;,:,1u6IkF61&;628Sp116m,;%#&2ct2;$,<6epp>&",
"#+;16uvBpenBBe1,-oXo*pBgepZF8Bek1,;;EIJBv6peve1>$,iBt1&@&1kve62&",
";&8kvvvZZzzpp<1$+XX$1euySvBe,6eke,11kBBSM1p2xp1;#;ee61;+&vve<%;;",
"e2Bvre6p611;;&&#oXo;168hk6e21vkte14ekye62;62kp1%#;2,1;;+;vp<;@$;",
"26Jpkr62,=$&,,$+Xo@222ei,,1epe1;&&,264641$&,le,&*12e8,&+;Sp1&$&*",
"&1Nee321$+o#62&+Xo>BVSVEpp6pe1;;%$&1624,&$$&11eervvk2;$$&kt1&&&$",
"&3v2<11&OXO,vk,$@-IQLAvUSvue2;$++@$;,>1>&@+$&1rBBSBp1,$$&222&&&%",
";u61<<<$oX@6vp611l^IFSvvBv2;;#OOO+$$$$-%$O+##;BSCGBk6ve;;1832,&&",
"42,;&&$OO@:Bde3pvBQIHxl6p61&@##&%#@+@@$#+O@&1eSvkipetBvpee61g611",
"1;;$++OO#;7S763BSkGRJve,4,&@O$#$;-%+@&>;$+&,pMBSckkeiteped82p66,",
";@+oooO@2etZkepSvtvBvp1-1>$+@&&$1,1,4y91;$6xIvtedve686;pFEm21,2;",
"$Oooo+&ev12NGplvkrpe61,*;1;1<;&@<2ee68211,BKJe212uBvk<$eBZh1&;,,",
"+O+$#=vBt6eSIBZp6263;&&&-1ppk1,;,216<,,12<ivBe6;:,kg61$kkv1&;82;",
"1,e,$;kvtpIJJvSSz1;,$@@%$1Bv6$&teBke1&eple8pp1;&;;pe8&+3k6;&1BB8",
"e16BkpvxpBSBBuNBvk1;%@#;13vk6:pQMi26<,vx61111<,&,,e21$O=3&&;eMIv",
"p<>pHmVTISBdd2gg2e1>$+#6pkCke6vGxv2pMvSB6,;,<>;;;,<,;@+%863pl6Bv",
"y22vBkkRBvvp7,12;;,;&@$ppppvESGSve-,tkf21<1q11;$$&&$O@$=,dZBk66J",
"Bit6616ve16e11&,&$,,&#*vkppkBptvp6>1SB6<3HFBe>#@@&&&@$$&*eIve1,v",
"8it8<&>61&;e;&#&;;1;&*2Svpppv2pvBp1,6kliSIJh,@oO$11,$##&2kvd6217",
";<81,$&,;;$21&@@$,e1,,eZBxe1htJSJp216MSSSBx91$$2JB88#@&,2662<1,;",
"$,e6;$;k2;$,;;$#@1tk36vvp2;;xlBpvk1<2xSNz412eetE!S1;O+ctd66,;;,&",
"$$;1;:6Sp1&,16;$#rvBe6Hi21#$vBkh61<2pBBpe,,kISkS~I2$O$~Sk61*$&%$",
"@$&&,1eve;#1ti;;,SvvgeBB2;##evk3,<;;,1626,&eHv<6EESr&,QBZvv6=$O+",
"+$$&:,122;$hle&,BEISB61rk6;$;ip<>=&;;&231;&pBp=e~Ek1;cICvpe321#+",
",&&$>;11<&;g8&$2SvdBe1;,22&@$3c<&&&&$#&11,>6e2;pSVv6&1QIBp2,,;&&",
"k,;@@$;,;-&8<+%BJkee11&&;;@O@3e>&$@OXX+;<;,11;;26k21;p^Jve<;;$=,",
"e1$##;:,&&$&@O1k8;&,<&#$&+oO,ke1;&#+oO;1,;;,,;&&&epp,822166,;#;,"
};
