/* XPM */
static char *_f281aaff63f4ffa8fbde1598a320cebuejOVv20SlWsHzYM[] = {
/* columns rows colors chars-per-pixel */
"64 64 33 1 ",
"  c #050446",
". c #050447",
"X c #080758",
"o c #0A0966",
"O c #0D0C72",
"+ c #0F0E7D",
"@ c #111086",
"# c #13118F",
"$ c #151397",
"% c #16159F",
"& c #17159F",
"* c #1816A6",
"= c #2316A7",
"- c #2816A7",
"; c #3616A8",
": c #3816A8",
"> c #4315AA",
", c #4515AA",
"< c #4B15AB",
"1 c #4D15AB",
"2 c #5515AC",
"3 c #5715AD",
"4 c #5D14AE",
"5 c #6514AF",
"6 c #6614AF",
"7 c #6C14B1",
"8 c #6D14B1",
"9 c #7213B2",
"0 c #7713B3",
"q c #7813B3",
"w c #0073D4",
"e c #00E2FF",
"r c white",
/* pixels */
"............................. . . ..... ......  .. .   ..   ....",
"XXXXXXXXXXXXXXXXXXXXXXXXXXXXXXXXXXXXXXXXXXXXXXXXXXXXXXXXXXXXXXXX",
"oooooooooooooooooooooooooooooooooooooooooooooooooooooooooooooooo",
"OOOOOOOOOOOOOOOOOOOOOOOOOOOOOOOOOOOOOOOOOOOOOOOOOOOOOOOOOOOOOOOO",
"++++++++++++++++++++++++++++++++++++++++++++++++++++++++++++++++",
"@@@@@@@@@@@@@@@@@@@@@@@@@@@@@@@@@@@@@@@@@@@@@@@@@@@@@@@@@@@@@@@@",
"################################################################",
"$$$$$$$$$$$$$$$$$$$$$$$$$$$$$$$$$$$$$$$$$$$$$$$$$$$$$$$$$$$$$$$$",
"%%%%%%%%%%%%%%%%%%%%%%&&%&%%%%%%&%&&%%%%%%%%%%%%&%%%%%%%%%%%%&%%",
"****************************************************************",
"****************************************************************",
"****************************************************************",
"****************************************************************",
"wwwwwwwwwwwwwwwwwwwwwwwwwwwwwwwwwwwwwwwwwwwwwwwwwwwwwwwwwwwwwwww",
"eeeeeeeeeeeeeeeeeeeeeeeeeeeeeeeeeeeeeeeeeeeeeeeeeeeeeeeeeeeeeeee",
"rrrrrrrrrrrrrrrrrrrrrrrrrrrrrrrrrrrrrrrrrrrrrrrrrrrrrrrrrrrrrrrr",
"eeeeeeeeeeeeeeeeeeeeeeeeeeeeeeeeeeeeeeeeeeeeeeeeeeeeeeeeeeeeeeee",
"wwwwwwwwwwwwwwwwwwwwwwwwwwwwwwwwwwwwwwwwwwwwwwwwwwwwwwwwwwwwwwww",
"****************************************************************",
"****************************************************************",
"****************************************************************",
"****************************************************************",
"****************************************************************",
"****************************************************************",
"****************************************************************",
"****************************************************************",
"****************************************************************",
"****************************************************************",
"****************************************************************",
"****************************************************************",
"****************************************************************",
"****************************************************************",
"****************************************************************",
"****************************************************************",
"****************************************************************",
"wwwwwwwwwwwwwwwwwwwwwwwwwwwwwwwwwwwwwwwwwwwwwwwwwwwwwwwwwwwwwwww",
"eeeeeeeeeeeeeeeeeeeeeeeeeeeeeeeeeeeeeeeeeeeeeeeeeeeeeeeeeeeeeeee",
"rrrrrrrrrrrrrrrrrrrrrrrrrrrrrrrrrrrrrrrrrrrrrrrrrrrrrrrrrrrrrrrr",
"eeeeeeeeeeeeeeeeeeeeeeeeeeeeeeeeeeeeeeeeeeeeeeeeeeeeeeeeeeeeeeee",
"wwwwwwwwwwwwwwwwwwwwwwwwwwwwwwwwwwwwwwwwwwwwwwwwwwwwwwwwwwwwwwww",
"****************************************************************",
"****************************************************************",
"****************************************************************",
"****************************************************************",
"****************************************************************",
"****************************************************************",
"****************************************************************",
"****************************************************************",
"****************************************************************",
"****************************************************************",
"****************************************************************",
"****************************************************************",
"****************************************************************",
"****************************************************************",
"-==--=-===-==-===---===-======--=-=-==----==---=--===-===----===",
";:;;:;:;::;:;:;;;;;:;;;;;;;;:;;::::;;;::;;;;;;;;::;;;:;;;;;;::::",
">>>>>>>>>>>>>>>>>>>>>,,>>>>,>>>>>>,>>>>>,,,,>>>>>>>>>>>,>>,,,>,>",
"11<<<1<<11<111111<111111111<111<11111111<1<<<<1<<<<<1111<1111111",
"3342244222222222223223222233222222222223323333323333332323333323",
"4444444464644644544444444636365464446446364363646446444444443464",
"6666666666666666666656666555666656665555665656665555666666666666",
"8887887777887878887878887787887777887777887778787777888878888888",
"9999999999999999999999999999999999999999999999999999999999999999",
"q000qqq000qqqq00q0q000qqqq000q0000qq0000qq0000q000000qq000qqqq0q"
};
