/* XPM */
static char * dark_blue_wall_xpm[] = {
"64 64 6 1",
" 	c None",
".	c #2F2E2F",
"+	c #3761AE",
"@	c #ACA3B6",
"#	c #35476F",
"$	c #2D305C",
"................................................................",
"................................................................",
"..++@@@@@@@@@@@@@@@@@@@@++..++@@@@@@@@@@@@@@@@@@@@@@@@@@@@@@++..",
"..++@@@@@@@@@@@@@@@@@@@@++..++@@@@@@@@@@@@@@@@@@@@@@@@@@@@@@++..",
"..@@++++++++++++++++++++@@..@@++++++++++##++++++##++++++++++@@..",
"..@@++++++++++++++++++++@@..@@++++++++++##++++++##++++++++++@@..",
"..++++########++######++++..++++####++######++########++##++++..",
"..++++########++######++++..++++####++######++########++##++++..",
"..++################$$$$++..++$$$$##########################++..",
"..++################$$$$++..++$$$$##########################++..",
"..##++####$$$$$$$$$$$$$$$$..$$$$$$$$$$$$####$$$$$$$$$$########..",
"..##++####$$$$$$$$$$$$$$$$..$$$$$$$$$$$$####$$$$$$$$$$########..",
"..$$####$$$$$$$$$$$$$$$$......$$$$$$$$$$$$$$$$$$$$$$$$$$####$$..",
"..$$####$$$$$$$$$$$$$$$$......$$$$$$$$$$$$$$$$$$$$$$$$$$####$$..",
"................................................................",
"................................................................",
"..##++++++++++++++++++++++++++++++++++++++++++++++++++++++++##..",
"..##++++++++++++++++++++++++++++++++++++++++++++++++++++++++##..",
"..++++++++++++++++++++++++++++####++++++++++++++++++++++++++++..",
"..++++++++++++++++++++++++++++####++++++++++++++++++++++++++++..",
"..++++######++####++######++########++##++++##++++##++####++++..",
"..++++######++####++######++########++##++++##++++##++####++++..",
"..++##++##############$$######$$$$$$####################++##++..",
"..++##++##############$$######$$$$$$####################++##++..",
"..++##########$$####$$$$$$############$$$$####$$##$$##########..",
"..++##########$$####$$$$$$############$$$$####$$##$$##########..",
"..##++######$$$$$$$$$$$$$$$$$$$$####$$$$$$$$$$$$$$$$$$########..",
"..##++######$$$$$$$$$$$$$$$$$$$$####$$$$$$$$$$$$$$$$$$########..",
"..$$####$$$$$$$$$$$$$$$$$$$$$$$$$$$$$$$$$$$$$$$$$$$$$$$$####$$..",
"..$$####$$$$$$$$$$$$$$$$$$$$$$$$$$$$$$$$$$$$$$$$$$$$$$$$####$$..",
"................................................................",
"................................................................",
"..##++++++++++++++++......++++++++++++++++++++++++++++++++++##..",
"..##++++++++++++++++......++++++++++++++++++++++++++++++++++##..",
"..++++++++++++##++++++..++++++++++++##++++++++++++++++++++++++..",
"..++++++++++++##++++++..++++++++++++##++++++++++++++++++++++++..",
"..++++++##++######++++..++++####++########++####++++++##++++++..",
"..++++++##++######++++..++++####++########++####++++++##++++++..",
"..++++####$$########++..++##########$$####$$######++##++##++++..",
"..++++####$$########++..++##########$$####$$######++##++##++++..",
"..++##++####$$######$$..$$########$$$$######$$##############++..",
"..++##++####$$######$$..$$########$$$$######$$##############++..",
"..++########$$$$##$$$$..$$$$##$$$$$$####$$######$$$$##########..",
"..++########$$$$##$$$$..$$$$##$$$$$$####$$######$$$$##########..",
"..##++####$$$$$$$$$$$$..$$$$$$$$$$$$$$$$$$$$##$$$$$$$$########..",
"..##++####$$$$$$$$$$$$..$$$$$$$$$$$$$$$$$$$$##$$$$$$$$########..",
"..$$##$$$$$$$$$$$$$$......$$$$$$$$$$$$$$$$$$$$$$$$$$$$$$####$$..",
"..$$##$$$$$$$$$$$$$$......$$$$$$$$$$$$$$$$$$$$$$$$$$$$$$####$$..",
"................................................................",
"................................................................",
"..##++++++++++++++++++++++++++++++++++++++++++++++++++++++++##..",
"..##++++++++++++++++++++++++++++++++++++++++++++++++++++++++##..",
"..++++++##++++++++++++++++##++++++##++++++++++++++++++++++++++..",
"..++++++##++++++++++++++++##++++++##++++++++++++++++++++++++++..",
"..++++++++##++++++####++######++######++##++++++####++++##++++..",
"..++++++++##++++++####++######++######++##++++++####++++##++++..",
"..++######++$$++$$############$$############++##########++++++..",
"..++######++$$++$$############$$############++##########++++++..",
"..##########$$$$$$$$##$$$$##########$$$$##$$####$$############..",
"..##########$$$$$$$$##$$$$##########$$$$##$$####$$############..",
"..$$######$$$$$$$$$$$$$$$$$$$$$$##$$$$$$$$$$$$$$$$$$########$$..",
"..$$######$$$$$$$$$$$$$$$$$$$$$$##$$$$$$$$$$$$$$$$$$########$$..",
"................................................................",
"................................................................"};
