/* XPM */
static char * green_wall_xpm[] = {
"64 64 6 1",
" 	c None",
".	c #2F2E2F",
"+	c #68BB2A",
"@	c #D3D980",
"#	c #4F683C",
"$	c #404943",
"................................................................",
"................................................................",
"..++@@@@@@@@@@@@@@@@@@@@++..++@@@@@@@@@@@@@@@@@@@@@@@@@@@@@@++..",
"..++@@@@@@@@@@@@@@@@@@@@++..++@@@@@@@@@@@@@@@@@@@@@@@@@@@@@@++..",
"..@@++++++++++++++++++++@@..@@++++++++++##++++++##++++++++++@@..",
"..@@++++++++++++++++++++@@..@@++++++++++##++++++##++++++++++@@..",
"..++++########++######++++..++++####++######++########++##++++..",
"..++++########++######++++..++++####++######++########++##++++..",
"..++################$$$$++..++$$$$##########################++..",
"..++################$$$$++..++$$$$##########################++..",
"..##++####$$$$$$$$$$$$$$$$..$$$$$$$$$$$$####$$$$$$$$$$########..",
"..##++####$$$$$$$$$$$$$$$$..$$$$$$$$$$$$####$$$$$$$$$$########..",
"..$$####$$$$$$$$$$$$$$$$......$$$$$$$$$$$$$$$$$$$$$$$$$$####$$..",
"..$$####$$$$$$$$$$$$$$$$......$$$$$$$$$$$$$$$$$$$$$$$$$$####$$..",
"................................................................",
"................................................................",
"..##++++++++++++++++++++++++++++++++++++++++++++++++++++++++##..",
"..##++++++++++++++++++++++++++++++++++++++++++++++++++++++++##..",
"..++++++++++++++++++++++++++++####++++++++++++++++++++++++++++..",
"..++++++++++++++++++++++++++++####++++++++++++++++++++++++++++..",
"..++++######++####++######++########++##++++##++++##++####++++..",
"..++++######++####++######++########++##++++##++++##++####++++..",
"..++##++##############$$######$$$$$$####################++##++..",
"..++##++##############$$######$$$$$$####################++##++..",
"..++##########$$####$$$$$$############$$$$####$$##$$##########..",
"..++##########$$####$$$$$$############$$$$####$$##$$##########..",
"..##++######$$$$$$$$$$$$$$$$$$$$####$$$$$$$$$$$$$$$$$$########..",
"..##++######$$$$$$$$$$$$$$$$$$$$####$$$$$$$$$$$$$$$$$$########..",
"..$$####$$$$$$$$$$$$$$$$$$$$$$$$$$$$$$$$$$$$$$$$$$$$$$$$####$$..",
"..$$####$$$$$$$$$$$$$$$$$$$$$$$$$$$$$$$$$$$$$$$$$$$$$$$$####$$..",
"................................................................",
"................................................................",
"..##++++++++++++++++......++++++++++++++++++++++++++++++++++##..",
"..##++++++++++++++++......++++++++++++++++++++++++++++++++++##..",
"..++++++++++++##++++++..++++++++++++##++++++++++++++++++++++++..",
"..++++++++++++##++++++..++++++++++++##++++++++++++++++++++++++..",
"..++++++##++######++++..++++####++########++####++++++##++++++..",
"..++++++##++######++++..++++####++########++####++++++##++++++..",
"..++++####$$########++..++##########$$####$$######++##++##++++..",
"..++++####$$########++..++##########$$####$$######++##++##++++..",
"..++##++####$$######$$..$$########$$$$######$$##############++..",
"..++##++####$$######$$..$$########$$$$######$$##############++..",
"..++########$$$$##$$$$..$$$$##$$$$$$####$$######$$$$##########..",
"..++########$$$$##$$$$..$$$$##$$$$$$####$$######$$$$##########..",
"..##++####$$$$$$$$$$$$..$$$$$$$$$$$$$$$$$$$$##$$$$$$$$########..",
"..##++####$$$$$$$$$$$$..$$$$$$$$$$$$$$$$$$$$##$$$$$$$$########..",
"..$$##$$$$$$$$$$$$$$......$$$$$$$$$$$$$$$$$$$$$$$$$$$$$$####$$..",
"..$$##$$$$$$$$$$$$$$......$$$$$$$$$$$$$$$$$$$$$$$$$$$$$$####$$..",
"................................................................",
"................................................................",
"..##++++++++++++++++++++++++++++++++++++++++++++++++++++++++##..",
"..##++++++++++++++++++++++++++++++++++++++++++++++++++++++++##..",
"..++++++##++++++++++++++++##++++++##++++++++++++++++++++++++++..",
"..++++++##++++++++++++++++##++++++##++++++++++++++++++++++++++..",
"..++++++++##++++++####++######++######++##++++++####++++##++++..",
"..++++++++##++++++####++######++######++##++++++####++++##++++..",
"..++######++$$++$$############$$############++##########++++++..",
"..++######++$$++$$############$$############++##########++++++..",
"..##########$$$$$$$$##$$$$##########$$$$##$$####$$############..",
"..##########$$$$$$$$##$$$$##########$$$$##$$####$$############..",
"..$$######$$$$$$$$$$$$$$$$$$$$$$##$$$$$$$$$$$$$$$$$$########$$..",
"..$$######$$$$$$$$$$$$$$$$$$$$$$##$$$$$$$$$$$$$$$$$$########$$..",
"................................................................",
"................................................................"};
