/* XPM */
static char * star_xpm[] = {
"64 64 5 1",
" 	c #35E4EF",
".	c #B5DDB2",
"+	c #F3D52A",
"@	c #89E0D3",
"#	c #D7D985",
"                                                                ",
"                                                                ",
"                                                                ",
"                                                                ",
"                                                                ",
"                                                                ",
"                                                                ",
"                                          .                     ",
"              +@                         ++                     ",
"              +++                      #++@                     ",
"              #+++#                   ++++                      ",
"               +++++@               ++++++                      ",
"               +++++++            @+++++++                      ",
"               ++++++++.         ++++++++.                      ",
"               .+++++++++      .+++++++++                       ",
"                ++++++++++#   +++++++++++                       ",
"                ++++++++++++.++++++++++++                       ",
"                ++++++++++++++++++++++++.                       ",
"                .+++++++++++++++++++++++                        ",
"                 +++++++++++++++++++++++                        ",
"                 +++++++++++++++++++++++                        ",
"                 ++++++++++++++++++++++.                        ",
"                 @+++++++++++++++++++++                         ",
"                  +++++++++++++++++++++                         ",
"                 @+++++++++++++++++++++.                        ",
"                .+++++++++++++++++++++++#                       ",
"               #++++++++++++++++++++++++++                      ",
"              +++++++++++++++++++++++++++++                     ",
"             +++++++++++++++++++++++++++++++@                   ",
"            +++++++++++++++++++++++++++++++++#                  ",
"          @++++++++++++++++++++++++++++++++++++                 ",
"         .++++++++++++++++++++++++++++++++++++++                ",
"        +++++++++++++++++++++++++++++++++++++++++               ",
"       +++++++++++++++++++++++++++++++++++++++++++.             ",
"      +++++++++++++++++++++++++++++++++++++++++++++#            ",
"    @..#++++++++++++++++++++++++++++++++++++#..@                ",
"                     @+++++++++++++                             ",
"                      @+++++++++++#                             ",
"                       +++++++++++                              ",
"                       #++++++++++                              ",
"                        +++++++++@                              ",
"                        +++++++++                               ",
"                        @+++++++#                               ",
"                         +++++++                                ",
"                         #++++++                                ",
"                          +++++@                                ",
"                          +++++                                 ",
"                           ++++                                 ",
"                           +++                                  ",
"                           .++                                  ",
"                            +.                                  ",
"                            +                                   ",
"                                                                ",
"                                                                ",
"                                                                ",
"                                                                ",
"                                                                ",
"                                                                ",
"                                                                ",
"                                                                ",
"                                                                ",
"                                                                ",
"                                                                ",
"                                                                "};
