/* XPM */
static char * black_brick_xpm[] = {
"64 64 552 2",
"  	c #9A9A9C",
". 	c #99999B",
"+ 	c #959597",
"@ 	c #979799",
"# 	c #989899",
"$ 	c #979797",
"% 	c #969696",
"& 	c #989898",
"* 	c #9B9B9B",
"= 	c #9C9C9C",
"- 	c #9D9D9D",
"; 	c #9F9F9F",
"> 	c #A0A0A0",
", 	c #9E9E9E",
"' 	c #A1A1A1",
") 	c #9C9C9D",
"! 	c #9D9D9F",
"~ 	c #9B9B9D",
"{ 	c #9F9FA0",
"] 	c #A2A2A2",
"^ 	c #9E9EA0",
"/ 	c #9F9FA1",
"( 	c #A1A1A3",
"_ 	c #A2A2A3",
": 	c #A4A4A4",
"< 	c #A6A6A6",
"[ 	c #A7A7A7",
"} 	c #AAAAAA",
"| 	c #656565",
"1 	c #818183",
"2 	c #767678",
"3 	c #777778",
"4 	c #767677",
"5 	c #757576",
"6 	c #777777",
"7 	c #787878",
"8 	c #797979",
"9 	c #7A7A7B",
"0 	c #7A7A7A",
"a 	c #7B7B7B",
"b 	c #7B7B7C",
"c 	c #79797A",
"d 	c #7A7A7C",
"e 	c #78787A",
"f 	c #79797B",
"g 	c #7E7E7E",
"h 	c #C3C3C3",
"i 	c #676767",
"j 	c #6F6F71",
"k 	c #464648",
"l 	c #464649",
"m 	c #464549",
"n 	c #46464A",
"o 	c #373737",
"p 	c #202020",
"q 	c #212121",
"r 	c #212022",
"s 	c #232226",
"t 	c #3E3D41",
"u 	c #403F43",
"v 	c #3F3E42",
"w 	c #3E3E42",
"x 	c #3F3F43",
"y 	c #3F3F42",
"z 	c #3F3F41",
"A 	c #404042",
"B 	c #3A3A3C",
"C 	c #202021",
"D 	c #232323",
"E 	c #252525",
"F 	c #333333",
"G 	c #434343",
"H 	c #434347",
"I 	c #424146",
"J 	c #424145",
"K 	c #38373B",
"L 	c #3D3C40",
"M 	c #37373B",
"N 	c #39393B",
"O 	c #333335",
"P 	c #232325",
"Q 	c #252526",
"R 	c #242424",
"S 	c #1F1F1F",
"T 	c #1E1E1E",
"U 	c #262626",
"V 	c #404040",
"W 	c #4B4B4B",
"X 	c #C1C1C1",
"Y 	c #696969",
"Z 	c #9C9C9E",
"` 	c #403F44",
" .	c #1B1B1B",
"..	c #222124",
"+.	c #27262B",
"@.	c #3A393E",
"#.	c #3A393F",
"$.	c #3B3A3F",
"%.	c #3B3A40",
"&.	c #3A3A3F",
"*.	c #3B3B3D",
"=.	c #353537",
"-.	c #1D1D1E",
";.	c #323232",
">.	c #3E3E3F",
",.	c #3D3C41",
"'.	c #3C3B41",
").	c #37363B",
"!.	c #353439",
"~.	c #39383D",
"{.	c #35343A",
"].	c #363639",
"^.	c #3C3C3E",
"/.	c #2F2F31",
"(.	c #212122",
"_.	c #181818",
":.	c #161616",
"<.	c #292929",
"[.	c #3B3B3B",
"}.	c #464646",
"|.	c #C2C2C2",
"1.	c #6C6C6C",
"2.	c #6E6E70",
"3.	c #39383B",
"4.	c #37373A",
"5.	c #37373C",
"6.	c #36363B",
"7.	c #373738",
"8.	c #383839",
"9.	c #272728",
"0.	c #1F1F20",
"a.	c #363638",
"b.	c #323237",
"c.	c #323137",
"d.	c #2F2F34",
"e.	c #2D2D32",
"f.	c #2E2E33",
"g.	c #323136",
"h.	c #323234",
"i.	c #2D2E30",
"j.	c #2F2F2F",
"k.	c #38373A",
"l.	c #313034",
"m.	c #2E2D33",
"n.	c #2D2C32",
"o.	c #313035",
"p.	c #323135",
"q.	c #333336",
"r.	c #323235",
"s.	c #313134",
"t.	c #2B2A2D",
"u.	c #222223",
"v.	c #19191A",
"w.	c #161617",
"x.	c #39393A",
"y.	c #313133",
"z.	c #3D3D3E",
"A.	c #6E6E6E",
"B.	c #A5A5A5",
"C.	c #6F6F70",
"D.	c #36353B",
"E.	c #35363A",
"F.	c #36373B",
"G.	c #37383C",
"H.	c #353638",
"I.	c #343436",
"J.	c #262628",
"K.	c #1E1E20",
"L.	c #353639",
"M.	c #3A3B3F",
"N.	c #323337",
"O.	c #313236",
"P.	c #2F3034",
"Q.	c #2D2E32",
"R.	c #313234",
"S.	c #323335",
"T.	c #1E1E1F",
"U.	c #2E2E2E",
"V.	c #3E3D40",
"W.	c #2E2D32",
"X.	c #302F34",
"Y.	c #2B2B2F",
"Z.	c #1B1B1D",
"`.	c #18181A",
" +	c #343338",
".+	c #3C3B3E",
"++	c #6F6F6F",
"@+	c #707070",
"#+	c #363539",
"$+	c #333338",
"%+	c #333438",
"&+	c #343539",
"*+	c #242426",
"=+	c #2F2E33",
"-+	c #1E1F1F",
";+	c #3D3D40",
">+	c #2D2C31",
",+	c #2B2A2E",
"'+	c #202022",
")+	c #403F45",
"!+	c #3C3C3F",
"~+	c #A8A8A8",
"{+	c #6D6D6E",
"]+	c #343339",
"^+	c #2B2B2D",
"/+	c #303135",
"(+	c #2E2F31",
"_+	c #27282A",
":+	c #272727",
"<+	c #2E2E31",
"[+	c #2A292E",
"}+	c #27262A",
"|+	c #222224",
"1+	c #3D3C42",
"2+	c #C2C2C3",
"3+	c #6D6D6D",
"4+	c #343439",
"5+	c #2F2F32",
"6+	c #28282A",
"7+	c #313237",
"8+	c #313135",
"9+	c #28292B",
"0+	c #262729",
"a+	c #1F2021",
"b+	c #1E1E21",
"c+	c #29282D",
"d+	c #28272C",
"e+	c #232227",
"f+	c #1F1F21",
"g+	c #3C3B40",
"h+	c #333237",
"i+	c #3D3D3F",
"j+	c #A6A6A8",
"k+	c #6D6D6F",
"l+	c #2C2C2D",
"m+	c #2C2C2C",
"n+	c #222222",
"o+	c #323134",
"p+	c #37363C",
"q+	c #2C2C2E",
"r+	c #2E2E30",
"s+	c #2E2D30",
"t+	c #2B2B2E",
"u+	c #2D2D30",
"v+	c #2D2D2F",
"w+	c #29292B",
"x+	c #272729",
"y+	c #29292A",
"z+	c #323233",
"A+	c #232326",
"B+	c #38383A",
"C+	c #C3C3C5",
"D+	c #A4A4A6",
"E+	c #6C6C6E",
"F+	c #2A2A2C",
"G+	c #1C1C1C",
"H+	c #2E2D2F",
"I+	c #2A2A2B",
"J+	c #282828",
"K+	c #313131",
"L+	c #252429",
"M+	c #232324",
"N+	c #2D2D2D",
"O+	c #303032",
"P+	c #C2C2C4",
"Q+	c #6B6B6D",
"R+	c #2A2A2D",
"S+	c #1D1D1D",
"T+	c #242427",
"U+	c #26252A",
"V+	c #191919",
"W+	c #353536",
"X+	c #A7A7A9",
"Y+	c #2B2B2C",
"Z+	c #2A2A2A",
"`+	c #242328",
" @	c #1A1A1A",
".@	c #C1C1C3",
"+@	c #A8A8AA",
"@@	c #212223",
"#@	c #232425",
"$@	c #212123",
"%@	c #1C1C1E",
"&@	c #1D1D1F",
"*@	c #202122",
"=@	c #1C1D1D",
"-@	c #1C1D1C",
";@	c #1F1E20",
">@	c #202023",
",@	c #212023",
"'@	c #201F22",
")@	c #6C6C6D",
"!@	c #ABABAD",
"~@	c #202221",
"{@	c #19191B",
"]@	c #1A1A1C",
"^@	c #1F2120",
"/@	c #1D1F1E",
"(@	c #20201F",
"_@	c #ACACAE",
":@	c #3B3C3D",
"<@	c #3B3C3E",
"[@	c #3C3C3D",
"}@	c #3B3B3C",
"|@	c #353436",
"1@	c #282829",
"2@	c #232424",
"3@	c #383A3B",
"4@	c #3A3B3C",
"5@	c #3A3C3D",
"6@	c #3A3A3B",
"7@	c #434345",
"8@	c #6B6B6C",
"9@	c #3E3E40",
"0@	c #3B3C40",
"a@	c #3C3D41",
"b@	c #3E3D42",
"c@	c #252427",
"d@	c #242525",
"e@	c #3D3E42",
"f@	c #36353A",
"g@	c #2C2B30",
"h@	c #201F24",
"i@	c #454547",
"j@	c #ADADAF",
"k@	c #2E2F32",
"l@	c #2F3035",
"m@	c #303136",
"n@	c #37383D",
"o@	c #2F2E34",
"p@	c #2E2E32",
"q@	c #333334",
"r@	c #3A3A3A",
"s@	c #323338",
"t@	c #333439",
"u@	c #35363B",
"v@	c #3E3F43",
"w@	c #38393E",
"x@	c #2E2F34",
"y@	c #302F35",
"z@	c #333238",
"A@	c #28272D",
"B@	c #27262C",
"C@	c #1F1E22",
"D@	c #171717",
"E@	c #343434",
"F@	c #3C3C3C",
"G@	c #353535",
"H@	c #ADADAD",
"I@	c #303033",
"J@	c #38373C",
"K@	c #313132",
"L@	c #3B3C41",
"M@	c #2E2F33",
"N@	c #313136",
"O@	c #1E1E22",
"P@	c #171818",
"Q@	c #343537",
"R@	c #3C3D40",
"S@	c #302F33",
"T@	c #161817",
"U@	c #2F2F33",
"V@	c #393A3E",
"W@	c #2D2D31",
"X@	c #252527",
"Y@	c #3C3D3F",
"Z@	c #38393D",
"`@	c #181A19",
" #	c #333436",
".#	c #34353A",
"+#	c #313137",
"@#	c #3A3A3D",
"##	c #2C2D31",
"$#	c #1E201F",
"%#	c #353738",
"&#	c #303036",
"*#	c #ACACAC",
"=#	c #2D2C30",
"-#	c #2B2A30",
";#	c #2C2C31",
">#	c #2B2A2F",
",#	c #28272B",
"'#	c #2A292C",
")#	c #29292C",
"!#	c #262629",
"~#	c #222225",
"{#	c #373739",
"]#	c #2C2C30",
"^#	c #2C2B2F",
"/#	c #1E1F1E",
"(#	c #222126",
"_#	c #242326",
":#	c #39393C",
"<#	c #28282C",
"[#	c #2F2E32",
"}#	c #313036",
"|#	c #242428",
"1#	c #212025",
"2#	c #1F1E23",
"3#	c #1D1D20",
"4#	c #28292D",
"5#	c #292A2E",
"6#	c #2A2B2F",
"7#	c #27272C",
"8#	c #28272A",
"9#	c #28282B",
"0#	c #1C1C1D",
"a#	c #1F1F22",
"b#	c #212124",
"c#	c #232225",
"d#	c #1E1D20",
"e#	c #272829",
"f#	c #27272A",
"g#	c #29282B",
"h#	c #313033",
"i#	c #6B6B6B",
"j#	c #1F1E21",
"k#	c #2B2B2B",
"l#	c #3C3B3F",
"m#	c #3A393D",
"n#	c #ADAEAD",
"o#	c #6E6F6F",
"p#	c #363538",
"q#	c #3A3A3E",
"r#	c #3C3C41",
"s#	c #ADAFAE",
"t#	c #6D6F6E",
"u#	c #3F4043",
"v#	c #3D3E43",
"w#	c #3C3D42",
"x#	c #2F3032",
"y#	c #2C2D2F",
"z#	c #AEB0AF",
"A#	c #6E7070",
"B#	c #434447",
"C#	c #292A2C",
"D#	c #6E706F",
"E#	c #404145",
"F#	c #404146",
"G#	c #414245",
"H#	c #36373C",
"I#	c #303035",
"J#	c #C0C0C0",
"K#	c #AEAFAF",
"L#	c #424246",
"M#	c #27272B",
"N#	c #323236",
"O#	c #292A2D",
"P#	c #AFAFAF",
"Q#	c #333337",
"R#	c #27282C",
"S#	c #2B2C30",
"T#	c #26272B",
"U#	c #222327",
"V#	c #232328",
"W#	c #414144",
"X#	c #3C3C40",
"Y#	c #29282C",
"Z#	c #262527",
"`#	c #272628",
" $	c #2A292F",
".$	c #232228",
"+$	c #A9A9A9",
"@$	c #242425",
"#$	c #1C1C1F",
"$$	c #1B1B1C",
"%$	c #1A1A1D",
"&$	c #1A1A1B",
"*$	c #171719",
"=$	c #A3A3A3",
"-$	c #242327",
";$	c #39383C",
">$	c #343437",
",$	c #343336",
"'$	c #302F32",
")$	c #2D2D2E",
"!$	c #2F2F30",
"~$	c #363637",
"{$	c #1D1E1F",
"]$	c #343435",
"^$	c #37363A",
"/$	c #353438",
"($	c #333236",
"_$	c #414143",
":$	c #202123",
"<$	c #2B2C2E",
"[$	c #37383A",
"}$	c #414045",
"|$	c #3B3B3F",
"1$	c #303133",
"2$	c #3F3E43",
"3$	c #2E2D31",
"4$	c #69696A",
"5$	c #353539",
"6$	c #2A2B2D",
"7$	c #363739",
"8$	c #686868",
"9$	c #39383E",
"0$	c #2F2E31",
"a$	c #717171",
"b$	c #414244",
"c$	c #3A3B3D",
"d$	c #262627",
"e$	c #151515",
"f$	c #303034",
"g$	c #303131",
"h$	c #404143",
"i$	c #2A2B2E",
"j$	c #242329",
"k$	c #2A2A2E",
"l$	c #040404",
"m$	c #676768",
"n$	c #38383C",
"o$	c #313232",
"p$	c #303132",
"q$	c #686869",
"r$	c #2C2B31",
"s$	c #3F4042",
"t$	c #3C3D3E",
"u$	c #030303",
"v$	c #6A6A6A",
"w$	c #2B2B30",
"x$	c #2A2A2F",
"y$	c #28292C",
"z$	c #222125",
"A$	c #37383B",
"B$	c #36363A",
"C$	c #2A292D",
"D$	c #141414",
"E$	c #6A6A6B",
"F$	c #3E3E41",
"G$	c #272629",
"H$	c #222226",
"I$	c #202024",
"J$	c #242529",
"K$	c #242325",
"L$	c #303031",
"M$	c #282728",
"N$	c #363636",
"O$	c #BFBFBF",
"P$	c #B0B0B0",
"Q$	c #C9C9C9",
"R$	c #BEBEBE",
"S$	c #BABABA",
"T$	c #BBBBBB",
"U$	c #BCBCBC",
"V$	c #B9B9B9",
"W$	c #727272",
"X$	c #757575",
"Y$	c #767676",
"Z$	c #737373",
"`$	c #636363",
"  . + @ # $ % $ $ & * * = - ; > ; ; , , - = - , , ' ' ' ' ' ; , ) ) ! ~ { > ' ] ] ] ] ; - = - , , , ^ / ( ( _ : : < [ [ < } < | ",
"^ 1 2 2 3 4 5 6 6 7 7 6 7 7 8 9 0 0 9 a 9 0 9 b b 9 9 9 9 9 0 c d d e e 3 6 8 0 0 9 9 9 c 8 0 9 8 8 f d f f c 8 8 7 0 7 a g h i ",
"@ j k k l m m n l o p q q r s t u u v v v w v x x x u u u u u y z z A B C D E F G H H I J K K w L M N A O P Q R S T q U V W X Y ",
"Z j A A u ` ` ` ` O D S  ...+.@.#.#.#.#.$.%.$.#.#.#.#.#.#.#.#.&.B B *.=.-.p U ;.>.,.,.'.'.).!.#.~.{.].^./.P (.q _.:.U <.[.}.|.1.",
"_ 2.3.4.M 5.5.6.5.7.8.9.0.a.%.b.c.c.c.c.d.e.f.c.c.c.c.c.c.c.c.g.h.h.O i.0.j.>.k.l.c.c.m.n.o.o.g.g.g.p.q.r.s.t.u.v.w.x.z y.z.|.A.",
"B.C.M D.6.E.E.F.G.H.I.J.K.L.M.N.O.O.O.O.P.Q.f.o.o.o.o.o.o.o.o.o.R.R.S.i.T.U.V.).c.o.o.W.W.X.o.o.o.o.o.g.g.o.Y.P Z.`.N `  +.+h ++",
"[ @+#+ +$+%+%+&+F.O /.*+K.L.M.N.O.O.O.O.P.Q.Q.W.W.W.W.W.W.W.W.=+R.R.S.i.-+U.;+).c.W.W.>+W.=+W.W.W.W.=+o.g.o.,+P '+K.N )+!.!+h A.",
"~+{+#+]+$+%+&+E.F.h.^+P K.L.M.N.O.O.O.O./+P.d.=+=+=+=+=+W.W.=+X.R.(+(+_+C :+<+X.c.=+=+>+W.X.X.W.W.W.=+X.>+[+}+|+'+'+8.1+!.;+2+3+",
"~+{+#+]+4+&+E.E.F.5+6+|+K.].M.N.O.O.O.O.7+N.b.g.g.g.g.o.X.=+o.8+R.(+9+0+a+S b+c+c.g.g.W.W.X.o.X.W.W.>+=+d+e+s |+'+f+a.g+h+i+|.3+",
"j+k+O y.s.s.R.s./.l+m+n+T o+p+c.c.c.p.q+r+r+r+s+s+s+s+q+t+q+u+u+v+v+w+x+Q q S y+z+h.h.r+t.,+[+X.X.W.v+6+J.A+P n+0.T ;.a./.B+C+k+",
"D+E+y././././.q+F+m+j.q G+H+g.c.o.o./.6+F+w+w+w+w+w+w+6+6+6+w+w+w+w+6+w+I+E T J+K+y.y.^+x+A+L+g.o.W.t+M+P P P n+p S N+O+F+=.P+E+",
"j+Q+q+F+F+F+F+q+v+:+D T G+n+s R+t+t+^+w+w+w+w+w+w+w+w+w+w+w+w+w+w+w+F+x+(.S S+q U F+^+w+x+T+e++.U+L+*+P P P u.p  .V+q *+6+W+P+{+",
"X+Q+Y+w+w+w+w+v+/.:+p S+G+G+S+Z+<.<.w+w+w+w+w+w+w+w+w+w+w+w+w+w+w+w+w+x+0.S+G+G+T J.x+6+J.T+`+`+e+e+*+*+*+P (.p  @_.S+'+6+O .@E+",
"+@Q+P '+u.@@(.u.#@p  . .G+S+G+T T T '+$@$@|+'+%@%@&@K.T.T.0.(.$@@@@@u.*@=@=@G+-@S+T.f+f+T.;@>@,@'@'@'+'+0.-.T.p G+G+T 0.$@/..@)@",
"!@E+P f+*@~@~@~@~@p T T S G+S+G+G+S+%@'+$@f+&@{@{@]@]@-.S+G+T S ^@~@~@^@/@/@/@/@/@T T T S q q p S (@p p S S+S+S S p S $@$@/.P+k+",
"_@2.A i+:@:@:@<@:@[@}@|@z+M+S S+S+S Q O y.F+r+I.I.h.r+1@p G+T 2@3@4@:@4@4@:@:@:@5@*.*.}@*.z.6@W+W+W+W+W+y+C 0.S S S o ^.^.7@C+8@",
"_@j A 9@!+0@0@a@a@g+b@g.g.c@n+V+ .p 9.=.y.^+/.=.=.=.v+Y+p  .p d@M.0@0@a@e@a@0@a@M.$.$.$.$.g+@.f@ + + +h+g@h@'@p p q o i+i+i@C+E+",
"j@2.O /.k@l@m@n@e@p+]+o@m.p@j.p p ;.q@=.h.F+^+F+F+q+*+E S n+r@}@s@s@t@u@v@w@s@m@x@o@o@o@o@o@y@g.z@z@o@A@A@B@C@D@E@F@G@O h.9@.@2.",
"H@A.I@W.e.P.m@u@a@J@g.=+=+l.K@'+'+O a.=.h.w+F+F+F+q+*+P '+$@^.i+N.O./+&+L@G./+P.Q.W.W.W.W.e.M@N@O.O.o@+.d+c+O@P@Q@R@%+g.g.^.|.{+",
"H@{+S@m.m.P.O.F.a@J@g.=+=+l.y.'+$@O =.=.h.w+F+F+F+^+*+P '+$@^.!+N.O./+&+0@G.O.P.e.W.W.W.W.e.M@/+O.O.=++.d+c+b+T@Q@a@t@c.g..+2+3+",
"H@{+U@W.f.P./+E.V@!.o.=+X.W@r+'+'+h.=.h.O+F+F+w+w+^+X@P '+$@^.Y@N.O.Q.N.Z@F.O.P.M@=+W.W.=+p@M@/+N.N.W.[+c+c+>@`@ #a@.#+#o.@#|.3+",
"H@{+S@y@N@O.O./+O.=+>+X.h+Y.F+f+$@I.O+w+F+F+F+^+^+w+*+P '+$@^.!+N.O.##P.O./+/+N.N.=+W.W.W.p@M@/+N.N. +h+>+d+A+$#%#0@.#&#=+N X 3+",
"*#{+=#-#;#####;#e.g@>#>#>+,#6+&@&@r+5+'#)#x+x+!#!#x+A+~#'+f+a.{#N.O.P.Q.######Q.M@]#>#^#g@p@M@Q.####W.>+>#d+A+/#Q@0@t@o@W.3.X 3+",
"*#1.Y.A@A@d+d+d+d+d+d+d+d+,#6+%@&@F+[+[+c+(#`+e+e+e+e+A+f+&@y.O O.O.O.M@d+d+d+[+W.w+6+6+w+p.o.d+d+d+d+d+d++._#S =.g+y@m.W.:#X 3+",
"*#1.Y.A@A@d+d+d+d+d+d+d+d+,#6+%@&@F+[+[+c+(#`+e+e+e+e+A+f+&@y.O O.O.O.M@d+d+d+[+W.w+6+6+w+p.o.d+d+d+d+d+d++._#S =.g+y@m.W.:#X 3+",
"*#1.Y.A@A@d+d+d+d+d+d+c+d+,#J.K.K.F+[+>#c+`+e+e+e+e+`+P K.%@y.y./+O.O.M@<#d++.c+[#6+6+x+w+r.X.c+d+d+d+d+d++._#q a.,.}#n.W.k.h 3+",
"*#1.Y.A@A@d+d+d+d+d+d+d++.|#'+&@]@$@1#e+`+`+e+e+e+e+2#3#%@%@'+~#4#5#4#6#7#d+d+d+c+6+6+w+x+t+[+c+d+d+d+d+d++._#S *+U+o@o@-#=.|.1.",
"*#3+I+6+8#9#9#9#9#9#)#9#9#|+T.-.0#-.a#b#c#A+c#c#c#~#d#Z.0#0#G+T.e#y+e#w+w+9#8#9#f#6+6+F+6+8#9#)#8#g#9#9#g#8#X@K.f+>@s+h#I+q@X i#",
"H@A.R S T.K.K.K.K.'+$@'+$@-.S+G+G+G+&@K.'+'+'+'+'+'+&@G+G+G+G+G+S+S T S C f+K.K.K.K.K.f+K.%@&@f+f+'+'+'+$@$@f+%@]@`.$@D S N+|.1.",
"H@A.n+S 0.f+f+f+f+$@$@'+'+'+a#b+C@C@b+f+'+$@$@|+|+$@f+j#C@C@C@a#S+S+G+S+K.f+f+K.K.K.K.K.K.{@{@K.K.'+'+P P |+f+Z.]@]@%@-.S+k#h 3+",
"H@++p E }@^.^.^.^.*.B I.y.:#g+g+g+g+.+^.*.B *.*.*.^.^.l#g+g+g+m#S S+G+G+0#6+I.I.I.I.I.B *.y.y.B B+y.I.^.*.B a.y.y.O+P T T N+|.3+",
"n#o#u.1@>.Y@!+^.^.^.*.p#r.q#1+r#'.g+l#^.^.!+!+^.^.!+i+,.1+r#'.@.C T G+S+a+F+=.I.I.I.=.N B O O *.B+y.I.*.*.*.{#y.y.y.*+p S N+|.3+",
"s#t#u#v#w#a@v@G.N.o.=+X.o.@.Z@N.N.N.N.N.E.0@G.N.N.N.M.a@a@0@%+%+O+q+Z.$@Q@Q@H.x#y#h.a.r+q+y.h.O /.F+F+F+^+^+^+^+J.*+P u.p N+|.3+",
"z#A#B#v#a@a@V@&+P.=+W.X.o.@.Z@O.O.O.O.O.%+V@E.O.O.O.V@Z@0@a@O.N.y.v+%@P Q@S.S.y#C#O+I.v+F+h.y.r+/.F+w+w+F+F+F+F+*+*+P n+p N+|.3+",
"z#D#E#F#e@M./+O.O.=+W.X.o.N@O.N./+O.O.O.O.%+P./+%+N.O.O.Z@a@N.N.h.v+%@|+Q@x#C#C#C#w+w+F+F+O O+F+F+w+F+F+F+F+F+F+P P P n+S U.|.3+",
"z#o#G#v#H#G.O.P.P.W.W.X.o.I#/+O.N.M@M@M@M@M@%+&+N.O.P.M@&+V@/+O.O+Y+&@P =.x#C#C#C#w+w+6+6+O+/.q+F+F+F+F+^+q+w+w+X@P P R S+m+J#1.",
"K#o#L#r#c.8+W.W.W.W@p@I#8+d.=+I#I#c+7#<#<#M#N#a@G.O.M@p@W.f.>+W@w+X@K.X@=.x#C#F+F+w+F+X@P x+w+F+F+F+O#O#<+8+R+s s s s n+D@J+J#3+",
"P#++I ,.c.o.>+W.W.M@P.O./+P.=+>+>+c+d+d+[+h+Q#Z@%+P.P.X.X.X.X.S@w+J.K.X@I.O+F+F+F+v+r+6+x+w+w+x+J.J.R#Q.S#6#T#e+e+e+e+M+ .k#X 1.",
"P#++L#,.c.o.W.>+W./+N.N.O./+X.c+d+d+d+d+>+b@).O.M@Q./+b.h+h+g.8+w+J.K.X@I.O+F+^+^+y.O ^+F+^+6+|+|+|+T#%+4#U#V#e+e+e+e+M+p j.|.1.",
"P#++L#'.y@X.X.>+>#S###P.%+Q.>#+.d+d+d+d+=+g+J@/+P.P./+o.W.g@g@g@6+x+K.X@I./.x+J.J.^+r+w+F+r+v+^+^+^+6#N.##6#7#e+e+e+e+u.p N+|.3+",
"P#++W#$.W.=+h+>++.M#4#Q.O.6#+.d+d+d+d+d+[#X#J@N./+/+N.g.>#+.d+Y#6+x+K.X@=.v+..*+*+6+^+w+q+/.h.O h.h.O.O.O./+S#e+e+e+e+u.p N+|.3+",
"H@A.k#U w+w+w+w+w+6+6+w+w+Y#A@A@A@A@Z#S S J+`# $ $ $ $R+w+6+6+x+q T S+S M#U+.$.$.$T+*+6+6+x+x+x+x+x+x+x+x+x+J.P P P '+S S N+|.3+",
"+$3+p S 9.6+6+6+6+6+6+6+6+9#d+d+d+d+@$G+G+S+u.d+d+d+d+9#6+x+6+x+T G+ @S+c#e+e+e+e+*+*+J.J.*+P P P P P P P P P P P P '+S S N+|.3+",
"< 1.p S+(.|+$@K.%@K.|+|+$@&@K.>@,@3#0#T T T q |+b+#$a#..|+|+|+u.S S+S+S+$$%$]@Z.Z.]@Z.%@Z.Z.Z.f+'+'+'+]@]@Z.Z.Z.{@]@K.S S U.|.3+",
"B.1.S S+(.'+(.&@{@K.'+f+'+&$ .S p  . @T S S S S S+ @T C '+'+'+'+p S S T D@_.V+V+V+]@Z.Z.]@]@{@f+'+'+%@*${@{@`.`.]@]@&@T T N+|.3+",
"=$8@;@-$^.^.i+i+i+4.l.;$!+>$y.O ,$'$)$-.C T.0.0.!$z.~$I.O h.h.h.(.0.C 0.{$I+~$]$W+L v y L ^$/$^$q.($>$>$#+/$r.v+{#{#|+ @T N+|.3+",
"] 1.-$d+L i+9@i+i+J@h+J@g+f@h+h+g.h+/.$@$@'+'+$@h._$a.h.S. # #R.$@f+K.f+:$<$[$[$H.b@` }$` J@f@f@!. +!.f@).f@($r+=.B+$@V+S+U.|.3+",
"' i#|$J@g@v+r+{#z J@h+X.o.>+>+>+W.h+r.r+F+f+r+^.O ^+w+^+1$S.y#C#w+x+K.J.H.H.H.S.y#g+2$h+o.W.W.W.=+W.W.=+=+W.3$r+r+O+x+:+S U.|.3+",
"; 4$x J@>#q+v+=.B 5$o.W.W.W.W.W.W.o.y./.^+'+y.z I.F+F+C#(+1$<$6$6+x+'+X@{#7$[$S.(+~.g+g.W.W.W.W.>+>+=+=+=+W.p@r+O+y.w+9.T N+|.++",
", 8$u 9$;#v+r+r+r+W@W.W.W.W.W.W.=+>+0$r+F+'+y.A =.F+F+C#6$<$<$C#*+|+f+X@{#7$7$ #Q@W.>+W.W.W.W.W.=+=+X.!.h+X.S@v+B+N q+:+_.:+J#a$",
"= 8@q#p+f.Q.k@k@p@Q.Q.M@M@Q.Q.M@f.Q.X.[+Y#0#z+b$7$<$C#C#<$i.9+C#`+(#f+D K@Q@c$H. #X.W.W.W.W.W.W.W.W.o.).g.=+=+o.).M g@d$e$U X A.",
", Y f$n.N@/+/+/+/+/+/+/+/+M@M@P./+/+d.c+f# .g$h$<@ #i.<$R.Q@C#i$j$(#0#S+K.i.Y@7$Q@X.W.W.W.W.W.W.W.W.=+f@o.=+o. + +f@k$Q l$S+|.@+",
", m$n$ +I#O.O./+P.P.P./+O./+/+/+O.P.n.B@}+G+o$h$<@ #<$6$i.(+C#O#.$(#%@n+p$ #[$Q@ #!.f@g.X.=+W.W.W.W.W.o.X.o.g.h+W.>+c+9.l$T |.++",
"; q$v %.b.O.O.P.Q.Q.Q./+O.O./+/+P.Q.r$+.!#T z+s$c$ #6$6$C#C#C#C#.$(#(.<.t$[$1$R.r.$.,. +o.=+W.W.W.W.W.W.=+o.g.g.>#d+d+d$u$T X ++",
"' v$t @.N@N@I#U@W@M@d.8+O.N@I#d.Q.w$x$M#!#T./.<@Q@x#<$R+)#)#y$<#e+z$f+:+<@A$R.1$x#B$M ($8+X.=+W.W.W.=+>+X.g.g.p.C$M#M#y+D$E J#@+",
"=$E$t @.}#X.W.=+W.o.g.g.g.g.o.=+>#c+6+6+X@f+F+a.O+F+F+k$>#[+[+d+*+$@'+6+F$G./+/+Q.h.h.h.h.r.g.=+W.W.W.W.l.g.p.h.^+6+6+J+p U.J#@+",
"=$E$L ~.X.W.>+>#[+[+>#>#[+>#>#c+[++.8#6+X@K.J.v+q+^+J.|#`+L+L+`+*+$@%@*+L.N.O.O.P.^+^+^+^+=#>+[+c+c+>#X.>+[+Y#F+6+6+6+J+p U.J#@+",
"B.8@w ~.m.W.W.>#c+d+d+d+d+d+d+d+d+d+G$6+J.%@P ^+q+^+*+H$e+e+e+e+P '+Z.P s.O.N.O./+w+6+6+w+u+>+d+d+d+c+o.g@d+M#6+6+x+6+U S U.J#@+",
"B.1.Y#c+g.=+[+[++.d+d+d+d+d+d+d+d+d+J.|+f+&@K.f+'+*+P s e+e+e+s K.%@%@K.I$J$5#6#6#w+6+x+6+Y#c+c+d+d+d+>#c+d+M#6+6+6+K.$$S N+J#@+",
"[ 1.n+K$L$)$M$9.9.9.9.9.9.9.9.9.9.9.E p G+ .$$S+T.q (.(.(.(.(.q G+$$ . . .(.9.9.9.9.9.:+:+:+9.9.9.9.9.9.9.9.9.9.9.:+0#_.S m+|.@+",
"+$a$n+S+ @ @_.D@D@D@D@D@D@D@D@D@D@D@_._._._.D@D@_._._._._._._.D@:.:._._.D@_.V+D@D@D@D@D@D@D@D@D@D@D@D@D@D@D@D@D@_.V+G+T V+<.X @+",
"} 7 U.Z+:+U :+U U U U U U U U U :+:+U :+:+:+:+:+:+:+:+:+:+:+:+:+:+:+:+:+:+:+:+:+:+:+:+:+:+:+:+:+:+:+:+:+:+:+:+:+:+:+k#k#J+N$O$@+",
"P$Q$h R$S$S$T$U$U$U$U$U$U$U$U$U$U$U$U$U$U$U$U$U$U$U$U$U$U$U$U$U$U$U$U$U$U$U$U$U$U$U$U$U$U$U$U$U$U$U$U$U$U$U$U$U$T$V$S$T$S$V$O$W$",
"X$6 6 Y$Y$6 6 Y$Y$Y$Y$Y$Y$Y$Y$Y$Z$Z$Z$Z$Z$Z$Z$Z$Z$Z$Z$Z$Z$Z$Z$Z$Z$Z$Z$Z$Z$Z$Z$Z$Z$Z$Z$Z$Z$Z$Z$Z$Z$Z$Z$Z$Z$Z$Z$Z$Z$Z$a$W$W$W$W$`$"};
