/* XPM */
static char * light_pink_wall_xpm[] = {
"64 64 6 1",
" 	c None",
".	c #2F2E2F",
"+	c #A34277",
"@	c #D089A1",
"#	c #683C5E",
"$	c #4C2F5A",
"................................................................",
"................................................................",
"..++@@@@@@@@@@@@@@@@@@@@++..++@@@@@@@@@@@@@@@@@@@@@@@@@@@@@@++..",
"..++@@@@@@@@@@@@@@@@@@@@++..++@@@@@@@@@@@@@@@@@@@@@@@@@@@@@@++..",
"..@@++++++++++++++++++++@@..@@++++++++++##++++++##++++++++++@@..",
"..@@++++++++++++++++++++@@..@@++++++++++##++++++##++++++++++@@..",
"..++++########++######++++..++++####++######++########++##++++..",
"..++++########++######++++..++++####++######++########++##++++..",
"..++################$$$$++..++$$$$##########################++..",
"..++################$$$$++..++$$$$##########################++..",
"..##++####$$$$$$$$$$$$$$$$..$$$$$$$$$$$$####$$$$$$$$$$########..",
"..##++####$$$$$$$$$$$$$$$$..$$$$$$$$$$$$####$$$$$$$$$$########..",
"..$$####$$$$$$$$$$$$$$$$......$$$$$$$$$$$$$$$$$$$$$$$$$$####$$..",
"..$$####$$$$$$$$$$$$$$$$......$$$$$$$$$$$$$$$$$$$$$$$$$$####$$..",
"................................................................",
"................................................................",
"..##++++++++++++++++++++++++++++++++++++++++++++++++++++++++##..",
"..##++++++++++++++++++++++++++++++++++++++++++++++++++++++++##..",
"..++++++++++++++++++++++++++++####++++++++++++++++++++++++++++..",
"..++++++++++++++++++++++++++++####++++++++++++++++++++++++++++..",
"..++++######++####++######++########++##++++##++++##++####++++..",
"..++++######++####++######++########++##++++##++++##++####++++..",
"..++##++##############$$######$$$$$$####################++##++..",
"..++##++##############$$######$$$$$$####################++##++..",
"..++##########$$####$$$$$$############$$$$####$$##$$##########..",
"..++##########$$####$$$$$$############$$$$####$$##$$##########..",
"..##++######$$$$$$$$$$$$$$$$$$$$####$$$$$$$$$$$$$$$$$$########..",
"..##++######$$$$$$$$$$$$$$$$$$$$####$$$$$$$$$$$$$$$$$$########..",
"..$$####$$$$$$$$$$$$$$$$$$$$$$$$$$$$$$$$$$$$$$$$$$$$$$$$####$$..",
"..$$####$$$$$$$$$$$$$$$$$$$$$$$$$$$$$$$$$$$$$$$$$$$$$$$$####$$..",
"................................................................",
"................................................................",
"..##++++++++++++++++......++++++++++++++++++++++++++++++++++##..",
"..##++++++++++++++++......++++++++++++++++++++++++++++++++++##..",
"..++++++++++++##++++++..++++++++++++##++++++++++++++++++++++++..",
"..++++++++++++##++++++..++++++++++++##++++++++++++++++++++++++..",
"..++++++##++######++++..++++####++########++####++++++##++++++..",
"..++++++##++######++++..++++####++########++####++++++##++++++..",
"..++++####$$########++..++##########$$####$$######++##++##++++..",
"..++++####$$########++..++##########$$####$$######++##++##++++..",
"..++##++####$$######$$..$$########$$$$######$$##############++..",
"..++##++####$$######$$..$$########$$$$######$$##############++..",
"..++########$$$$##$$$$..$$$$##$$$$$$####$$######$$$$##########..",
"..++########$$$$##$$$$..$$$$##$$$$$$####$$######$$$$##########..",
"..##++####$$$$$$$$$$$$..$$$$$$$$$$$$$$$$$$$$##$$$$$$$$########..",
"..##++####$$$$$$$$$$$$..$$$$$$$$$$$$$$$$$$$$##$$$$$$$$########..",
"..$$##$$$$$$$$$$$$$$......$$$$$$$$$$$$$$$$$$$$$$$$$$$$$$####$$..",
"..$$##$$$$$$$$$$$$$$......$$$$$$$$$$$$$$$$$$$$$$$$$$$$$$####$$..",
"................................................................",
"................................................................",
"..##++++++++++++++++++++++++++++++++++++++++++++++++++++++++##..",
"..##++++++++++++++++++++++++++++++++++++++++++++++++++++++++##..",
"..++++++##++++++++++++++++##++++++##++++++++++++++++++++++++++..",
"..++++++##++++++++++++++++##++++++##++++++++++++++++++++++++++..",
"..++++++++##++++++####++######++######++##++++++####++++##++++..",
"..++++++++##++++++####++######++######++##++++++####++++##++++..",
"..++######++$$++$$############$$############++##########++++++..",
"..++######++$$++$$############$$############++##########++++++..",
"..##########$$$$$$$$##$$$$##########$$$$##$$####$$############..",
"..##########$$$$$$$$##$$$$##########$$$$##$$####$$############..",
"..$$######$$$$$$$$$$$$$$$$$$$$$$##$$$$$$$$$$$$$$$$$$########$$..",
"..$$######$$$$$$$$$$$$$$$$$$$$$$##$$$$$$$$$$$$$$$$$$########$$..",
"................................................................",
"................................................................"};
