/* XPM */
static char * img_Player_xpm[] = {
"32 32 396 2",
"  	c None",
". 	c #FFFFFF",
"+ 	c #FFFFFA",
"@ 	c #FFFAF5",
"# 	c #FFFBF6",
"$ 	c #FFFFFE",
"% 	c #FFFEF9",
"& 	c #FFFAEF",
"* 	c #FAF0D1",
"= 	c #FAEEC9",
"- 	c #FAEEC7",
"; 	c #FAECC1",
"> 	c #F9ECBD",
", 	c #F9EAB8",
"' 	c #F8E9B3",
") 	c #F9ECBF",
"! 	c #FDF6E7",
"~ 	c #FFFAF1",
"{ 	c #D7D7D7",
"] 	c #F6F6F6",
"^ 	c #F9EBBD",
"/ 	c #F6E08C",
"( 	c #EED66D",
"_ 	c #F4DC7C",
": 	c #F5DE7C",
"< 	c #F4DD77",
"[ 	c #F4DC6F",
"} 	c #F4DA65",
"| 	c #F3D95B",
"1 	c #F3D853",
"2 	c #F3DA5E",
"3 	c #F6E399",
"4 	c #F8E8B2",
"5 	c #FCF6E4",
"6 	c #F6F6F5",
"7 	c #FFFAF4",
"8 	c #FAF5DD",
"9 	c #F6E18F",
"0 	c #F6E08B",
"a 	c #F6E086",
"b 	c #EDD672",
"c 	c #F4DC7F",
"d 	c #F5DE7E",
"e 	c #F4DD75",
"f 	c #F4DB6A",
"g 	c #F3DA60",
"h 	c #F3D955",
"i 	c #F3D74C",
"j 	c #F2D63E",
"k 	c #F3D743",
"l 	c #F3D74E",
"m 	c #F6E292",
"n 	c #FAEDC6",
"o 	c #FFFAEC",
"p 	c #F7E5A1",
"q 	c #F6E088",
"r 	c #F6E298",
"s 	c #F6E39B",
"t 	c #F6DF85",
"u 	c #F5DD7A",
"v 	c #F3D95E",
"w 	c #F3D852",
"x 	c #F2D640",
"y 	c #F3D63C",
"z 	c #F3D639",
"A 	c #F3D63E",
"B 	c #F3DA61",
"C 	c #F7E6A5",
"D 	c #FEF8E8",
"E 	c #FFFAF3",
"F 	c #FAEEC6",
"G 	c #F6E08A",
"H 	c #F5DE7F",
"I 	c #F6DF86",
"J 	c #F6E295",
"K 	c #F7E5A2",
"L 	c #F8E7AC",
"M 	c #F8E8B0",
"N 	c #F6E294",
"O 	c #F6DF83",
"P 	c #F4DD73",
"Q 	c #F3D957",
"R 	c #F3D74B",
"S 	c #F3D641",
"T 	c #F3D533",
"U 	c #F3D534",
"V 	c #F3D746",
"W 	c #F7E6A4",
"X 	c #FFFAF0",
"Y 	c #FAF4DE",
"Z 	c #F6E190",
"` 	c #F4DC74",
" .	c #F5DE7D",
"..	c #F7E5A0",
"+.	c #BAAF8F",
"@.	c #AFA78C",
"#.	c #AFA586",
"$.	c #F0DC8A",
"%.	c #EDD66D",
"&.	c #E4CC63",
"*.	c #AC9A54",
"=.	c #A69545",
"-.	c #BEA946",
";.	c #EED34D",
">.	c #F3D63A",
",.	c #F3D52F",
"'.	c #F3D530",
").	c #F3D74F",
"!.	c #FAEFC9",
"~.	c #FEF9EE",
"{.	c #F9E8B3",
"].	c #F4DC73",
"^.	c #F4DC71",
"/.	c #F5DF82",
"(.	c #F8E6AA",
"_.	c #F9ECC0",
":.	c #676456",
"<.	c #262521",
"[.	c #545145",
"}.	c #EED985",
"|.	c #F2D53E",
"1.	c #DAC253",
"2.	c #4A4222",
"3.	c #342D12",
"4.	c #7D702C",
"5.	c #E8CE4C",
"6.	c #F2D63D",
"7.	c #F3D52D",
"8.	c #F2D52F",
"9.	c #F4DC7B",
"0.	c #FAF1D3",
"a.	c #F4DA64",
"b.	c #EFD661",
"c.	c #F6E396",
"d.	c #F8E7AD",
"e.	c #F5E7BE",
"f.	c #3E3C34",
"g.	c #060504",
"h.	c #32302A",
"i.	c #EFD663",
"j.	c #F4D959",
"k.	c #E5CA42",
"l.	c #2F2A15",
"m.	c #1C1707",
"n.	c #594F1E",
"o.	c #E8CE4D",
"p.	c #F3D63B",
"q.	c #F3D535",
"r.	c #F2D52B",
"s.	c #F3D635",
"t.	c #F9EABB",
"u.	c #FEF9ED",
"v.	c #F8E5A6",
"w.	c #F3D95F",
"x.	c #EFD65E",
"y.	c #F6E293",
"z.	c #F7E6A7",
"A.	c #EDDFB1",
"B.	c #25231D",
"C.	c #080706",
"D.	c #24221C",
"E.	c #F0D978",
"F.	c #F3D52A",
"G.	c #D5BE44",
"H.	c #2F2A13",
"I.	c #100D03",
"J.	c #645822",
"K.	c #EED34E",
"L.	c #F3D745",
"M.	c #F3D52C",
"N.	c #F4DD78",
"O.	c #FFFEFD",
"P.	c #FAF1D2",
"Q.	c #F4DB66",
"R.	c #F5DD7B",
"S.	c #F6E18C",
"T.	c #F6E49C",
"U.	c #DDCE99",
"V.	c #1C1A12",
"W.	c #000000",
"X.	c #201E15",
"Y.	c #F0D65B",
"Z.	c #E1C639",
"`.	c #171406",
" +	c #161404",
".+	c #635720",
"++	c #F3D84D",
"@+	c #F3D742",
"#+	c #F3D52B",
"$+	c #F3D632",
"%+	c #FAEFCB",
"&+	c #F3D956",
"*+	c #F4DC72",
"=+	c #F5DE80",
"-+	c #DCCB8A",
";+	c #14120A",
">+	c #010100",
",+	c #1A170D",
"'+	c #EFD76F",
")+	c #CDB640",
"!+	c #1C1907",
"~+	c #0B0902",
"{+	c #574C19",
"]+	c #F3D74A",
"^+	c #F3D640",
"/+	c #F3D638",
"(+	c #F3D532",
"_+	c #F3D52E",
":+	c #F8E9B5",
"<+	c #FAEFCA",
"[+	c #F3D851",
"}+	c #F4DB68",
"|+	c #F4DD74",
"1+	c #E2CD7E",
"2+	c #3A341D",
"3+	c #080703",
"4+	c #433D23",
"5+	c #EFD66B",
"6+	c #F4DA67",
"7+	c #DBC34D",
"8+	c #453E18",
"9+	c #161303",
"0+	c #726521",
"a+	c #F3D531",
"b+	c #F2D52A",
"c+	c #FFFEFC",
"d+	c #F3D741",
"e+	c #F3D749",
"f+	c #F3D95D",
"g+	c #EFD874",
"h+	c #968849",
"i+	c #92833F",
"j+	c #9A8A49",
"k+	c #F4DC70",
"l+	c #E3CC5F",
"m+	c #958536",
"n+	c #95842F",
"o+	c #A8942F",
"p+	c #FAECC3",
"q+	c #F3D747",
"r+	c #F4D956",
"s+	c #F4D95D",
"t+	c #F0D658",
"u+	c #F3DA66",
"v+	c #F4DB67",
"w+	c #F3D95A",
"x+	c #F8E8B3",
"y+	c #FFFEF8",
"z+	c #F9ECC1",
"A+	c #F3D642",
"B+	c #F3D637",
"C+	c #F3D636",
"D+	c #F3D959",
"E+	c #F3D84E",
"F+	c #F2D630",
"G+	c #F3D62D",
"H+	c #F3D62C",
"I+	c #F3D63D",
"J+	c #E0C63A",
"K+	c #E3C83A",
"L+	c #EFD230",
"M+	c #F3D631",
"N+	c #F3D736",
"O+	c #EDD02A",
"P+	c #D9BE26",
"Q+	c #D6BB25",
"R+	c #EED02A",
"S+	c #796917",
"T+	c #726412",
"U+	c #C3AB21",
"V+	c #EFD22B",
"W+	c #D2B923",
"X+	c #6F610E",
"Y+	c #66590C",
"Z+	c #E3C728",
"`+	c #FAEFCC",
" @	c #F1D645",
".@	c #4A4009",
"+@	c #020100",
"@@	c #3E3505",
"#@	c #BCA522",
"$@	c #F1D42C",
"%@	c #EDD12A",
"&@	c #CEB522",
"*@	c #1E1901",
"=@	c #393104",
"-@	c #DEC226",
";@	c #F3D634",
">@	c #FAEEC5",
",@	c #FFFFFB",
"'@	c #FEF9F1",
")@	c #EAD686",
"!@	c #564A0A",
"~@	c #020200",
"{@	c #282103",
"]@	c #9B8818",
"^@	c #C2AA21",
"/@	c #D2B825",
"(@	c #CDB425",
"_@	c #D6BC25",
":@	c #C3AC20",
"<@	c #9D8A19",
"[@	c #5A4E08",
"}@	c #040300",
"|@	c #4A4006",
"1@	c #E3C727",
"2@	c #F6E08E",
"3@	c #F3D646",
"4@	c #9A8619",
"5@	c #62540B",
"6@	c #2B2403",
"7@	c #030200",
"8@	c #070500",
"9@	c #0F0C01",
"0@	c #110D01",
"a@	c #201B02",
"b@	c #171201",
"c@	c #090800",
"d@	c #190201",
"e@	c #180101",
"f@	c #160001",
"g@	c #130000",
"h@	c #4D4206",
"i@	c #A38E18",
"j@	c #EED029",
"k@	c #F3D633",
"l@	c #F9EDC2",
"m@	c #F7E49E",
"n@	c #E8CB2A",
"o@	c #877514",
"p@	c #493F06",
"q@	c #1D1801",
"r@	c #0D0A00",
"s@	c #181401",
"t@	c #0E0A01",
"u@	c #0A0000",
"v@	c #140001",
"w@	c #080001",
"x@	c #170001",
"y@	c #3E0805",
"z@	c #573209",
"A@	c #B7A11D",
"B@	c #F6E192",
"C@	c #FAF1D1",
"D@	c #F2D52C",
"E@	c #A28D1A",
"F@	c #7D6D10",
"G@	c #685A0B",
"H@	c #4B4006",
"I@	c #161301",
"J@	c #2A0602",
"K@	c #280102",
"L@	c #4E0206",
"M@	c #6B060D",
"N@	c #A4351A",
"O@	c #DFAC27",
"P@	c #F2D42A",
"Q@	c #F9EAB7",
"R@	c #F1D641",
"S@	c #C9AF21",
"T@	c #AC971B",
"U@	c #986817",
"V@	c #B6231E",
"W@	c #CE0D24",
"X@	c #F4142C",
"Y@	c #F3442C",
"Z@	c #F3B42B",
"`@	c #FEFAF2",
" #	c #F9EBBB",
".#	c #F4DA62",
"+#	c #F3C02A",
"@#	c #F3522C",
"##	c #F41F2C",
"$#	c #F41A2C",
"%#	c #F35C2C",
"&#	c #F9E9B9",
"*#	c #FAF4DB",
"=#	c #F7E499",
"-#	c #F2D52D",
";#	c #F3D42A",
">#	c #F3B72B",
",#	c #F3902B",
"'#	c #F38A2B",
")#	c #F39F2B",
"!#	c #F3CD2C",
"~#	c #F6E398",
"{#	c #FAF3D9",
"]#	c #FEFAEE",
"^#	c #E0C860",
"/#	c #F2D53A",
"(#	c #DCD7C9",
"_#	c #F6E9C2",
":#	c #F9EBBC",
"<#	c #F9EAB9",
"[#	c #E6D79B",
"}#	c #F6E6B5",
". . . . . . . . . . . . . . . . . . . . . . . . . . . . . . . . ",
". . . . . . . . . . . + + + + + @ @ @ @ # . . . . . . . . . . . ",
". . . . . . . . $ % & * = = = - ; > , ' ) ! ~ + . . . . . . . . ",
". . . . { ] . + & * ^ / ( _ : < [ } | 1 2 3 4 5 @ + . . . . . . ",
". . . . { 6 7 8 ; 9 0 a b c d e f g h i j k l m n o + . . . . . ",
". . . . $ & = p 0 q 9 r s r 9 t u f v w x y z A B C D + . . . . ",
". . . $ E F G H I J K L M L p N O P } Q R S z T U V W X . . . . ",
". . . % Y Z `  .9 ..' +.@.#.$.%.&.*.=.-.;.k >.T ,.'.).!.+ . . . ",
". . $ ~.{.].^./.N (._.:.<.[.}.|.1.2.3.4.5.6.>.U '.7.8.9.! . . . ",
". . % 0.P a.b.c c.d.e.f.g.h.i.j.k.l.m.n.o.j p.q.'.7.r.s.t.+ . . ",
". $ u.v.g w.x.9.y.z.A.B.C.D.E.F.G.H.I.J.K.L.p.U '.7.M.7.N.! . . ",
". O.P.Q.w | f R.S.T.U.V.W.X.Y.w Z.`. +.+++@+z T ,.7.#+#+$+_.+ . ",
". O.%+&+R &+a.*+=+9 -+;+>+,+'+A )+!+~+{+]+^+/+(+_+M.#+F.7.:++ . ",
". O.<+[+V [+| }+|+=+1+2+3+4+5+6+7+8+9+0+L.y q.a+_+M.#+b+M.:++ . ",
". c+- R d+e+1 f+}+^.g+h+i+j+< k+l+m+n+o+^+z T ,.7.#+#+b+M.:++ . ",
". c+p+q+y k ]+w Q h r+s+t+u+v+B w+w ]+@+>.q.a+_+M.#+F.F.M.x++ . ",
". y+z+A+B+y k e+e+C+_+(+@+&+D+h E+k F+G+H+7.,.7.M.#+F.F.#+4 + . ",
". y+) I+T B+p.J+K+L+r.#+M.M+>.N+M+M.r.F.F.O+P+Q+R+F.F.F.#+M + . ",
". y+) p.'.(+q.S+T+U+V+#+#+#+7.M.#+#+#+F.r.W+X+Y+Z+b+F.F.#+4 + . ",
". O.`+ @,.,.a+.@+@@@#@$@#+#+M.#+F.#+#+%@&@*@W.=@-@b+F.F.;@>@,@. ",
". $ '@)@T 7._+!@W.~@{@]@^@/@(@_@_@:@<@[@}@>+}@|@1@F.F.#+2@~ . . ",
". . y+n 3@7.M.4@5@6@7@8@9@0@a@b@c@d@e@f@g@7@h@i@j@F.F.k@l@+ . . ",
". . $ u.m@U #+#+n@o@p@q@r@s@t@7@u@v@w@x@y@z@A@F.F.F.M.B@~ . . . ",
". . . % C@D+D@#+#+#+Q+E@F@G@H@I@J@K@L@M@N@O@P@F.F.F.R P.+ . . . ",
". . . $ E Q@R@7.#+F.F.#+#+#+S@T@U@V@W@X@Y@Z@b+F.#+I+x+@ . . . . ",
". . . . $ `@ #.#(+#+F.F.F.F.F.F.+#@###$#%#+#b+7.w+&#~ . . . . . ",
". . . . . $ 7 *#=#p.-#F.F.F.F.F.;#>#,#'#)#!#s.~#{#@ . . . . . . ",
". . . . . . . $ ]#- ^#/#,.,._+_+_+7.D@7./+c.>@~ . . . . . . . . ",
". . . . . . . . . + (#_#> :#:#:#<#<#[#}#!.~ + . . . . . . . . . ",
". . . . . . . . . . . + + + + + + + + + ,@. . . . . . . . . . . ",
". . . . . . . . . . . . . . . . . . . . . . . . . . . . . . . . ",
". . . . . . . . . . . . . . . . . . . . . . . . . . . . . . . . "};
