/* XPM */
static char * img_Collects_xpm[] = {
"32 32 157 2",
"  	c None",
". 	c #FFFFFF",
"+ 	c #D7D7D7",
"@ 	c #F6F6F6",
"# 	c #FCFAFC",
"$ 	c #FAF5FA",
"% 	c #E4C5E2",
"& 	c #E9D2E8",
"* 	c #F2E5F1",
"= 	c #E1BFDF",
"- 	c #DEB7DC",
"; 	c #C97BC7",
"> 	c #E1BEDF",
", 	c #F9F2F8",
"' 	c #EAD3E8",
") 	c #C781C4",
"! 	c #CD8DCB",
"~ 	c #D39CD1",
"{ 	c #CC86CA",
"] 	c #C879C6",
"^ 	c #D7A7D6",
"/ 	c #D49ED2",
"( 	c #C46CC2",
"_ 	c #E0BEDF",
": 	c #DAAED8",
"< 	c #C466C1",
"[ 	c #C56CC3",
"} 	c #CB83C9",
"| 	c #D1BCD0",
"1 	c #D093CE",
"2 	c #C56AC2",
"3 	c #C567C2",
"4 	c #C97CC7",
"5 	c #E5CAE4",
"6 	c #FEFEFE",
"7 	c #D5A1D3",
"8 	c #C66FC3",
"9 	c #C874C5",
"0 	c #E6CBE5",
"a 	c #DBAFD9",
"b 	c #C363C1",
"c 	c #C364C0",
"d 	c #CA7FC8",
"e 	c #E6CAE4",
"f 	c #D6A4D4",
"g 	c #C56BC2",
"h 	c #C465C1",
"i 	c #D091CE",
"j 	c #E5C8E4",
"k 	c #CE8CCB",
"l 	c #C979C6",
"m 	c #CE89CB",
"n 	c #E3C5E2",
"o 	c #C362C0",
"p 	c #CA7DC8",
"q 	c #D39AD1",
"r 	c #C467C1",
"s 	c #C363C0",
"t 	c #C771C4",
"u 	c #E7CEE6",
"v 	c #ECE9F2",
"w 	c #F5FEFD",
"x 	c #D297CF",
"y 	c #C464C1",
"z 	c #CE8DCC",
"A 	c #DAD0E6",
"B 	c #E4FCFA",
"C 	c #DFECF2",
"D 	c #DCB8DC",
"E 	c #CB81C9",
"F 	c #C674C3",
"G 	c #E0C6DF",
"H 	c #F7EEF6",
"I 	c #CA7EC7",
"J 	c #C463C1",
"K 	c #BAB3D5",
"L 	c #AEF7F1",
"M 	c #B7DDE6",
"N 	c #B5AFD4",
"O 	c #8EF0EB",
"P 	c #ADB9D6",
"Q 	c #C572C4",
"R 	c #C46BC2",
"S 	c #D9B0D7",
"T 	c #C774C4",
"U 	c #C265C1",
"V 	c #B0A2CE",
"W 	c #65F3EA",
"X 	c #AABED8",
"Y 	c #B19BCC",
"Z 	c #6DEAE5",
"` 	c #B19CCD",
" .	c #D6A3D4",
"..	c #C773C4",
"+.	c #C16BC2",
"@.	c #A7ADD2",
"#.	c #67F3EA",
"$.	c #A3BDD6",
"%.	c #A3B5D2",
"&.	c #76EAE5",
"*.	c #AFA2CE",
"=.	c #C266C1",
"-.	c #C569C2",
";.	c #D5A0D3",
">.	c #CF8DCC",
",.	c #C37AC5",
"'.	c #A8C5DA",
").	c #7AF4EB",
"!.	c #AFC8DD",
"~.	c #A9BED5",
"{.	c #ABEFEC",
"].	c #B9C9DD",
"^.	c #CC85C9",
"/.	c #DCB3DB",
"(.	c #D49DD2",
"_.	c #CF9CD1",
":.	c #CEE0EA",
"<.	c #B2E3DE",
"[.	c #CBE4EA",
"}.	c #CD88CB",
"|.	c #C671C4",
"1.	c #F6FEFD",
"2.	c #C56DC2",
"3.	c #E1C0E1",
"4.	c #CF8FCD",
"5.	c #F1E4F0",
"6.	c #DBB0D9",
"7.	c #E0BCDE",
"8.	c #C978C6",
"9.	c #C66DC3",
"0.	c #E5C9E4",
"a.	c #EFDFEE",
"b.	c #CB7FC8",
"c.	c #C97FC7",
"d.	c #EDD9EC",
"e.	c #F4EAF4",
"f.	c #EEDCED",
"g.	c #D49ED3",
"h.	c #CF8ECD",
"i.	c #E3C4E2",
"j.	c #C66CC3",
"k.	c #C977C6",
"l.	c #EBD7EB",
"m.	c #DDB4DB",
"n.	c #C364C1",
"o.	c #D299D0",
"p.	c #C66EC3",
"q.	c #C468C1",
"r.	c #D29AD0",
"s.	c #F1E3F1",
"t.	c #DCB3DA",
"u.	c #D092CE",
"v.	c #CA7CC7",
"w.	c #F2E4F1",
"x.	c #FBF6FA",
"y.	c #A1A1A1",
"z.	c #EDEDED",
". . . . . . . . . . . . . . . . . . . . . . . . . . . . . . . . ",
". . . . . . . . . . . . . . . . . . . . . . . . . . . . . . . . ",
". . . . . . . . . . . . . . . . . . . . . . . . . . . . . . . . ",
". . . . + @ . . . . . . + @ . . . . . . . . . . . . . . . . . . ",
". . . . + @ . . . . . . + @ . . . . . . + @ . . . . . . . . . . ",
". . . . . . . . . . . . . . . . . . . . + @ . . . . . . . . . . ",
". . . . . . . . . . . . . . . . . . . . . . . . . # $ $ # . . . ",
"$ % % & . . . . . . . . . . . + @ . . . . . . . . * = = * . . . ",
"$ - ; > * , . . . . . . . . . + @ . . . . + @ . . ' ) ! ' . . . ",
"$ ~ { ] ^ * + @ . . . . . . . . . . . . . + @ . ' / ( ] _ . . . ",
". : < [ } _ | @ . . . . . . . . . . . . . . . $ 1 2 3 4 5 . . . ",
"6 7 8 < 9 ; 0 # . . . . . . . . . . . . . . $ a < b c d e . . . ",
"$ f g h b 8 i * . . . . j k l m n . . . . . % ] o o o p * . . . ",
"$ q r o s h t u v w w x 2 o o o y z A B C D E b o o s F G . . . ",
"H I J J h o b 2 K L M 3 o o o o o s N O P Q b J o o b R S . . . ",
"$ T o o y o o U V W X o o o s o o b Y Z ` c o o o J o <  .. . . ",
"$ ..o o o o o +.@.#.$.o o o s o o c %.&.*.=.J s o o o -.;.. . . ",
"6 >.s s o o o ,.'.).!.y o o o o o =.~.{.].^.y b b o b r /.. . . ",
". (.b o s s g _.:.<.[.}.o o o o o |.w w 1.u { b o o o 2.3.. . . ",
". 4.b o b 4 (.5., + @ _ 8 s o s g 6.. . . . 7.8.o o o 9.0.. . . ",
"a.b.s s c.d.e.. . . . . f.g.h./ * . . . . . $ i.j.s y k.l.. . . ",
"m.< n.8 u . . . . . . . . . . . . . . . . . . . o.< y p.u . . . ",
"m.q.c r.# . . . . . . . . . . . . + @ . . . . . s.] o 8 s.. . . ",
"u h.h.t.. . + @ . . . . . . . . . + @ . . . . . # u.v.} w.. . . ",
". . . . . . + @ . . . . . . . . . . . . . . + @ . x.$ $ 6 . . . ",
". . . . . . . . . . . . . . . . . . . . . . + @ . . . . . . . . ",
". . . . . . . . . . + @ . . . . . . . . . . . . . . . . . . . . ",
". . . . . . . . . . y.z.. . . . . . + @ . . . . . . . . . . . . ",
". . . . . . . . . . + @ . . . . . . + @ . . . . . . . . . . . . ",
". . . . . . . . . . . . . . . . . . . . . . . . . . . . . . . . ",
". . . . . . . . . . . . . . . . . . . . . . . . . . . . . . . . ",
". . . . . . . . . . . . . . . . . . . . . . . . . . . . . . . . "};
